<svg xmlns="http://www.w3.org/2000/svg" xmlns:xlink="http://www.w3.org/1999/xlink" width="500" zoomAndPan="magnify" viewBox="0 0 375 374.999991" height="500" preserveAspectRatio="xMidYMid meet" version="1.0"><defs><g/><clipPath id="e75e5cffaf"><path d="M 78.585938 79.898438 L 293.835938 79.898438 L 293.835938 295.148438 L 78.585938 295.148438 Z M 78.585938 79.898438 " clip-rule="nonzero"/></clipPath><clipPath id="1ef33fdb5e"><path d="M 186.210938 79.898438 C 126.773438 79.898438 78.585938 128.085938 78.585938 187.523438 C 78.585938 246.964844 126.773438 295.148438 186.210938 295.148438 C 245.652344 295.148438 293.835938 246.964844 293.835938 187.523438 C 293.835938 128.085938 245.652344 79.898438 186.210938 79.898438 " clip-rule="nonzero"/></clipPath><clipPath id="2cbdb2e4a1"><path d="M 85 87 L 286 87 L 286 288 L 85 288 Z M 85 87 " clip-rule="nonzero"/></clipPath><clipPath id="6040f77f6a"><path d="M 44.382812 181.109375 L 159.160156 76.566406 L 294.003906 224.609375 L 179.230469 329.152344 Z M 44.382812 181.109375 " clip-rule="nonzero"/></clipPath><clipPath id="8fd2cdfeda"><path d="M 44.382812 181.109375 L 192.425781 46.265625 L 327.273438 194.308594 L 179.230469 329.152344 Z M 44.382812 181.109375 " clip-rule="nonzero"/></clipPath></defs><g clip-path="url(#e75e5cffaf)"><g clip-path="url(#1ef33fdb5e)"><path stroke-linecap="butt" transform="matrix(0.750204, 0, 0, 0.750204, 78.587519, 79.899912)" fill="none" stroke-linejoin="miter" d="M 143.458838 -0.00196487 C 64.230406 -0.00196487 -0.00210855 64.23055 -0.00210855 143.458982 C -0.00210855 222.692621 64.230406 286.919929 143.458838 286.919929 C 222.692477 286.919929 286.919785 222.692621 286.919785 143.458982 C 286.919785 64.23055 222.692477 -0.00196487 143.458838 -0.00196487 " stroke="#ffffff" stroke-width="2" stroke-opacity="1" stroke-miterlimit="4"/></g></g><g clip-path="url(#2cbdb2e4a1)"><g clip-path="url(#6040f77f6a)"><g clip-path="url(#8fd2cdfeda)"><path fill="#ffffff" d="M 253.25 261.730469 C 212.445312 298.898438 148.972656 295.933594 111.804688 255.132812 C 74.640625 214.328125 77.601562 150.851562 118.40625 113.6875 C 159.207031 76.523438 222.683594 79.484375 259.847656 120.285156 C 297.015625 161.089844 294.054688 224.566406 253.25 261.730469 Z M 119.402344 114.78125 C 79.179688 151.414062 76.265625 213.917969 112.898438 254.136719 C 149.535156 294.355469 212.035156 297.269531 252.253906 260.636719 C 292.472656 224.003906 295.390625 161.503906 258.753906 121.28125 C 222.121094 81.0625 159.621094 78.148438 119.402344 114.78125 Z M 119.402344 114.78125 " fill-opacity="1" fill-rule="nonzero"/></g></g></g><g fill="#ffffff" fill-opacity="1"><g transform="translate(119.776205, 219.197345)"><g><path d="M 49.378906 -69.070312 C 49.378906 -47.699219 18.851562 -45.027344 18.851562 -38.160156 C 18.851562 -33.808594 25.871094 -35.566406 34.34375 -22.894531 C 46.402344 -4.808594 48.539062 0 52.050781 0 L 63.726562 0 L 63.726562 -0.761719 C 55.027344 -0.761719 47.851562 -14.273438 40.679688 -24.957031 C 33.351562 -35.945312 19.613281 -33.808594 19.613281 -38.160156 C 19.613281 -43.121094 56.554688 -45.640625 56.554688 -69.222656 C 56.554688 -72.046875 55.636719 -75.023438 54.261719 -76.320312 L 46.707031 -76.320312 C 48.386719 -75.097656 49.378906 -71.894531 49.378906 -69.070312 Z M 2.289062 0 L 22.820312 0 L 22.820312 -0.761719 C 16.257812 -0.761719 15.796875 -6.183594 15.796875 -21.21875 L 15.796875 -55.101562 C 15.796875 -70.136719 16.257812 -75.558594 22.820312 -75.558594 L 22.820312 -76.320312 L 2.289062 -76.320312 L 2.289062 -75.558594 C 8.851562 -75.558594 9.3125 -70.136719 9.3125 -55.101562 L 9.3125 -21.21875 C 9.3125 -6.183594 8.851562 -0.761719 2.289062 -0.761719 Z M 2.289062 0 "/></g></g></g><g fill="#ffffff" fill-opacity="1"><g transform="translate(184.260202, 219.197345)"><g><path d="M 22.894531 0 L 22.894531 -0.761719 C 16.332031 -0.761719 15.875 -6.183594 15.875 -21.21875 L 15.875 -37.472656 C 15.875 -41.058594 17.25 -44.1875 21.21875 -44.1875 C 26.636719 -44.1875 32.664062 -37.472656 41.976562 -37.472656 C 48.003906 -37.472656 51.746094 -41.367188 51.746094 -45.867188 L 50.980469 -45.867188 C 50.980469 -43.195312 48.234375 -41.519531 45.335938 -41.519531 C 38.617188 -41.519531 32.285156 -46.25 24.726562 -46.25 C 20.148438 -46.25 16.789062 -43.808594 15.875 -41.746094 L 15.875 -55.101562 C 15.875 -70.136719 16.332031 -75.558594 22.894531 -75.558594 L 22.894531 -76.320312 L 2.289062 -76.320312 L 2.289062 -75.558594 C 8.851562 -75.558594 9.3125 -70.136719 9.3125 -55.101562 L 9.3125 -21.21875 C 9.3125 -6.183594 8.851562 -0.761719 2.289062 -0.761719 L 2.289062 0 Z M 47.011719 -75.558594 C 53.578125 -75.558594 54.035156 -70.136719 54.035156 -55.101562 L 54.035156 -21.21875 C 54.035156 -6.183594 53.578125 -0.761719 47.011719 -0.761719 L 47.011719 0 L 67.621094 0 L 67.621094 -0.761719 C 61.054688 -0.761719 60.597656 -6.183594 60.597656 -21.21875 L 60.597656 -55.101562 C 60.597656 -70.136719 61.054688 -75.558594 67.621094 -75.558594 L 67.621094 -76.320312 L 47.011719 -76.320312 Z M 47.011719 -75.558594 "/></g></g></g><g fill="#ffffff" fill-opacity="1"><g transform="translate(178.464652, 95.388188)"><g><path d="M 5.4375 -7.546875 L 5.359375 -7.828125 C 5.359375 -7.910156 5.40625 -7.953125 5.5 -7.953125 L 6.125 -7.9375 L 7.21875 -8.015625 C 7.320312 -8.015625 7.375 -7.960938 7.375 -7.859375 C 7.382812 -7.765625 7.34375 -7.71875 7.25 -7.71875 L 6.921875 -7.6875 C 6.671875 -7.644531 6.429688 -7.484375 6.203125 -7.203125 L 3.828125 -4.390625 C 3.734375 -4.273438 3.609375 -4.175781 3.453125 -4.09375 C 3.609375 -4.039062 3.738281 -3.953125 3.84375 -3.828125 L 6.65625 -0.9375 C 6.9375 -0.664062 7.179688 -0.519531 7.390625 -0.5 L 7.734375 -0.5 C 7.828125 -0.476562 7.875 -0.421875 7.875 -0.328125 C 7.875 -0.242188 7.820312 -0.203125 7.71875 -0.203125 C 6.84375 -0.179688 6.332031 -0.171875 6.1875 -0.171875 C 6.050781 -0.171875 5.90625 -0.25 5.75 -0.40625 L 3.015625 -3.34375 C 2.828125 -3.570312 2.648438 -3.6875 2.484375 -3.6875 L 2.21875 -3.671875 C 2.164062 -3.671875 2.140625 -3.628906 2.140625 -3.546875 L 2.21875 -0.796875 C 2.21875 -0.503906 2.320312 -0.347656 2.53125 -0.328125 L 2.640625 -0.328125 C 2.722656 -0.316406 2.765625 -0.269531 2.765625 -0.1875 C 2.765625 -0.0820312 2.710938 -0.03125 2.609375 -0.03125 L 1.78125 -0.046875 L 0.671875 0.03125 C 0.566406 0.03125 0.515625 -0.015625 0.515625 -0.109375 C 0.515625 -0.203125 0.554688 -0.253906 0.640625 -0.265625 L 0.828125 -0.296875 C 1.117188 -0.335938 1.265625 -0.492188 1.265625 -0.765625 L 1.09375 -7.0625 C 1.082031 -7.3125 0.910156 -7.457031 0.578125 -7.5 L 0.25 -7.53125 C 0.164062 -7.539062 0.117188 -7.585938 0.109375 -7.671875 C 0.109375 -7.773438 0.160156 -7.828125 0.265625 -7.828125 L 1.515625 -7.8125 L 2.390625 -7.890625 C 2.503906 -7.890625 2.5625 -7.84375 2.5625 -7.75 C 2.570312 -7.65625 2.523438 -7.601562 2.421875 -7.59375 L 2.328125 -7.5625 C 2.128906 -7.519531 2.035156 -7.363281 2.046875 -7.09375 L 2.109375 -4.3125 C 2.117188 -4.21875 2.15625 -4.171875 2.21875 -4.171875 L 2.515625 -4.1875 C 2.691406 -4.1875 2.863281 -4.304688 3.03125 -4.546875 L 5.28125 -7.25 C 5.382812 -7.351562 5.4375 -7.453125 5.4375 -7.546875 Z M 5.4375 -7.546875 "/></g></g></g><g fill="#ffffff" fill-opacity="1"><g transform="translate(191.966858, 95.448891)"><g><path d="M 5.875 0.671875 L 1.71875 0.203125 L 0.484375 0.109375 C 0.378906 0.0859375 0.332031 0.03125 0.34375 -0.0625 C 0.351562 -0.164062 0.398438 -0.210938 0.484375 -0.203125 L 0.8125 -0.1875 C 0.957031 -0.1875 1.078125 -0.21875 1.171875 -0.28125 C 1.273438 -0.351562 1.332031 -0.457031 1.34375 -0.59375 L 2.0625 -6.84375 C 2.09375 -7.113281 1.945312 -7.28125 1.625 -7.34375 L 1.296875 -7.421875 C 1.210938 -7.429688 1.175781 -7.484375 1.1875 -7.578125 C 1.207031 -7.679688 1.269531 -7.722656 1.375 -7.703125 L 2.59375 -7.515625 L 6.53125 -7.078125 C 6.664062 -7.054688 6.769531 -7 6.84375 -6.90625 C 6.914062 -6.8125 6.953125 -6.703125 6.953125 -6.578125 L 7 -5.53125 C 7 -5.40625 6.9375 -5.347656 6.8125 -5.359375 C 6.695312 -5.378906 6.628906 -5.445312 6.609375 -5.5625 C 6.535156 -5.925781 6.394531 -6.191406 6.1875 -6.359375 C 5.988281 -6.535156 5.691406 -6.644531 5.296875 -6.6875 L 3.578125 -6.890625 C 3.410156 -6.910156 3.273438 -6.878906 3.171875 -6.796875 C 3.066406 -6.722656 3.003906 -6.601562 2.984375 -6.4375 L 2.71875 -4.125 C 2.707031 -4.03125 2.75 -3.976562 2.84375 -3.96875 L 4.890625 -3.734375 C 4.992188 -3.722656 5.078125 -3.738281 5.140625 -3.78125 C 5.203125 -3.820312 5.242188 -3.863281 5.265625 -3.90625 C 5.296875 -3.945312 5.332031 -4.023438 5.375 -4.140625 L 5.4375 -4.28125 C 5.46875 -4.363281 5.523438 -4.398438 5.609375 -4.390625 C 5.703125 -4.378906 5.742188 -4.320312 5.734375 -4.21875 L 5.59375 -3.28125 L 5.53125 -2.390625 C 5.519531 -2.296875 5.46875 -2.25 5.375 -2.25 C 5.289062 -2.257812 5.238281 -2.304688 5.21875 -2.390625 L 5.21875 -2.609375 C 5.195312 -2.984375 5.066406 -3.1875 4.828125 -3.21875 L 2.765625 -3.453125 C 2.679688 -3.460938 2.632812 -3.421875 2.625 -3.328125 L 2.328125 -0.765625 C 2.316406 -0.609375 2.351562 -0.476562 2.4375 -0.375 C 2.53125 -0.28125 2.660156 -0.222656 2.828125 -0.203125 L 4.640625 0 C 5.023438 0.0507812 5.363281 0 5.65625 -0.15625 C 5.957031 -0.3125 6.175781 -0.5625 6.3125 -0.90625 C 6.363281 -1.019531 6.429688 -1.070312 6.515625 -1.0625 C 6.597656 -1.050781 6.65625 -1.019531 6.6875 -0.96875 C 6.71875 -0.925781 6.726562 -0.878906 6.71875 -0.828125 L 6.40625 0.28125 C 6.375 0.40625 6.304688 0.503906 6.203125 0.578125 C 6.109375 0.648438 6 0.679688 5.875 0.671875 Z M 5.875 0.671875 "/></g></g></g><g fill="#ffffff" fill-opacity="1"><g transform="translate(204.723705, 97.307512)"><g><path d="M 5.71875 1.46875 L 1.6875 0.4375 L 0.453125 0.171875 C 0.347656 0.140625 0.304688 0.078125 0.328125 -0.015625 C 0.359375 -0.109375 0.414062 -0.144531 0.5 -0.125 L 0.8125 -0.078125 C 0.96875 -0.046875 1.097656 -0.0546875 1.203125 -0.109375 C 1.304688 -0.171875 1.378906 -0.269531 1.421875 -0.40625 L 2.984375 -6.5 C 3.046875 -6.757812 2.921875 -6.945312 2.609375 -7.0625 L 2.3125 -7.171875 C 2.226562 -7.191406 2.195312 -7.25 2.21875 -7.34375 C 2.238281 -7.4375 2.300781 -7.46875 2.40625 -7.4375 L 3.625 -7.078125 L 7.453125 -6.109375 C 7.578125 -6.066406 7.671875 -5.992188 7.734375 -5.890625 C 7.804688 -5.796875 7.832031 -5.6875 7.8125 -5.5625 L 7.6875 -4.515625 C 7.675781 -4.398438 7.609375 -4.359375 7.484375 -4.390625 C 7.367188 -4.421875 7.3125 -4.492188 7.3125 -4.609375 C 7.28125 -4.972656 7.175781 -5.253906 7 -5.453125 C 6.832031 -5.648438 6.554688 -5.796875 6.171875 -5.890625 L 4.484375 -6.328125 C 4.328125 -6.367188 4.191406 -6.359375 4.078125 -6.296875 C 3.960938 -6.234375 3.882812 -6.117188 3.84375 -5.953125 L 3.265625 -3.703125 C 3.242188 -3.609375 3.273438 -3.550781 3.359375 -3.53125 L 5.359375 -3.015625 C 5.460938 -2.992188 5.546875 -3 5.609375 -3.03125 C 5.671875 -3.070312 5.71875 -3.109375 5.75 -3.140625 C 5.78125 -3.179688 5.828125 -3.253906 5.890625 -3.359375 L 5.984375 -3.5 C 6.023438 -3.570312 6.085938 -3.597656 6.171875 -3.578125 C 6.265625 -3.554688 6.296875 -3.492188 6.265625 -3.390625 L 6 -2.484375 L 5.8125 -1.609375 C 5.78125 -1.515625 5.71875 -1.472656 5.625 -1.484375 C 5.539062 -1.503906 5.5 -1.5625 5.5 -1.65625 L 5.515625 -1.859375 C 5.554688 -2.242188 5.460938 -2.460938 5.234375 -2.515625 L 3.21875 -3.03125 C 3.144531 -3.050781 3.09375 -3.015625 3.0625 -2.921875 L 2.421875 -0.421875 C 2.378906 -0.265625 2.394531 -0.132812 2.46875 -0.03125 C 2.539062 0.0703125 2.65625 0.144531 2.8125 0.1875 L 4.59375 0.640625 C 4.96875 0.742188 5.3125 0.738281 5.625 0.625 C 5.9375 0.507812 6.191406 0.285156 6.390625 -0.046875 C 6.453125 -0.140625 6.523438 -0.175781 6.609375 -0.15625 C 6.691406 -0.132812 6.742188 -0.0976562 6.765625 -0.046875 C 6.796875 -0.00390625 6.796875 0.0390625 6.765625 0.09375 L 6.3125 1.171875 C 6.257812 1.285156 6.179688 1.367188 6.078125 1.421875 C 5.972656 1.484375 5.851562 1.5 5.71875 1.46875 Z M 5.71875 1.46875 "/></g></g></g><g fill="#ffffff" fill-opacity="1"><g transform="translate(217.09447, 100.865699)"><g><path d="M 6.90625 1.09375 L 8.984375 -3.859375 C 9.078125 -4.097656 8.984375 -4.300781 8.703125 -4.46875 L 8.421875 -4.625 C 8.347656 -4.664062 8.328125 -4.722656 8.359375 -4.796875 C 8.398438 -4.878906 8.46875 -4.898438 8.5625 -4.859375 L 9.546875 -4.421875 L 10.359375 -4.109375 C 10.460938 -4.066406 10.492188 -4.003906 10.453125 -3.921875 C 10.421875 -3.847656 10.351562 -3.828125 10.25 -3.859375 L 10.0625 -3.90625 C 9.78125 -3.96875 9.59375 -3.882812 9.5 -3.65625 L 6.78125 2.8125 C 6.75 2.894531 6.691406 2.921875 6.609375 2.890625 L 6.484375 2.84375 C 6.304688 2.769531 6.1875 2.628906 6.125 2.421875 L 4.140625 -4.90625 C 4.140625 -4.925781 4.125 -4.941406 4.09375 -4.953125 C 4.0625 -4.960938 4.03125 -4.929688 4 -4.859375 L 1.953125 0.03125 C 1.859375 0.257812 1.941406 0.453125 2.203125 0.609375 L 2.359375 0.71875 C 2.441406 0.757812 2.460938 0.820312 2.421875 0.90625 C 2.390625 0.988281 2.320312 1.007812 2.21875 0.96875 L 1.4375 0.609375 L 0.4375 0.21875 C 0.332031 0.175781 0.296875 0.113281 0.328125 0.03125 C 0.367188 -0.0507812 0.429688 -0.0820312 0.515625 -0.0625 L 0.828125 0.03125 C 1.148438 0.132812 1.363281 0.0664062 1.46875 -0.171875 L 3.90625 -5.984375 C 4 -6.222656 3.921875 -6.421875 3.671875 -6.578125 L 3.484375 -6.671875 C 3.410156 -6.710938 3.390625 -6.773438 3.421875 -6.859375 C 3.460938 -6.941406 3.535156 -6.960938 3.640625 -6.921875 L 4.4375 -6.546875 C 4.644531 -6.460938 4.769531 -6.335938 4.8125 -6.171875 L 6.78125 1.078125 C 6.800781 1.109375 6.820312 1.128906 6.84375 1.140625 C 6.863281 1.148438 6.882812 1.132812 6.90625 1.09375 Z M 6.90625 1.09375 "/></g></g></g><g fill="#ffffff" fill-opacity="1"><g transform="translate(230.079587, 106.794948)"><g><path d="M 3.734375 -1.296875 L 5.84375 -0.015625 C 5.90625 0.0234375 5.953125 0 5.984375 -0.09375 L 6.625 -3.671875 L 3.703125 -1.4375 C 3.648438 -1.394531 3.660156 -1.347656 3.734375 -1.296875 Z M 1.640625 0.140625 C 1.609375 0.171875 1.578125 0.210938 1.546875 0.265625 C 1.523438 0.316406 1.519531 0.390625 1.53125 0.484375 C 1.539062 0.578125 1.585938 0.648438 1.671875 0.703125 L 1.875 0.84375 C 1.957031 0.90625 1.976562 0.972656 1.9375 1.046875 C 1.875 1.140625 1.789062 1.15625 1.6875 1.09375 L 0.890625 0.546875 L 0.015625 0.078125 C -0.078125 0.015625 -0.0976562 -0.0546875 -0.046875 -0.140625 C 0.00390625 -0.234375 0.0664062 -0.253906 0.140625 -0.203125 L 0.328125 -0.125 C 0.617188 0.0078125 0.878906 -0.00390625 1.109375 -0.171875 L 7.203125 -4.6875 C 7.273438 -4.75 7.367188 -4.742188 7.484375 -4.671875 C 7.609375 -4.597656 7.664062 -4.515625 7.65625 -4.421875 L 6.4375 3.0625 C 6.382812 3.34375 6.484375 3.582031 6.734375 3.78125 L 6.921875 3.90625 C 6.941406 3.925781 6.957031 3.953125 6.96875 3.984375 C 6.976562 4.023438 6.972656 4.054688 6.953125 4.078125 C 6.890625 4.179688 6.8125 4.207031 6.71875 4.15625 L 5.671875 3.453125 L 4.65625 2.890625 C 4.570312 2.847656 4.554688 2.785156 4.609375 2.703125 C 4.660156 2.609375 4.722656 2.582031 4.796875 2.625 L 5.03125 2.734375 C 5.113281 2.785156 5.203125 2.800781 5.296875 2.78125 C 5.390625 2.757812 5.453125 2.71875 5.484375 2.65625 C 5.515625 2.601562 5.53125 2.554688 5.53125 2.515625 L 5.859375 0.734375 C 5.878906 0.648438 5.847656 0.578125 5.765625 0.515625 L 3.296875 -0.96875 C 3.234375 -1.007812 3.164062 -1.003906 3.09375 -0.953125 Z M 1.640625 0.140625 "/></g></g></g><g fill="#ffffff" fill-opacity="1"><g transform="translate(241.62988, 114.305987)"><g><path d="M 6.28125 3.09375 L 9.734375 -1.03125 C 9.898438 -1.226562 9.863281 -1.457031 9.625 -1.71875 L 9.40625 -1.921875 C 9.351562 -1.984375 9.351562 -2.046875 9.40625 -2.109375 C 9.46875 -2.179688 9.535156 -2.1875 9.609375 -2.125 L 10.421875 -1.40625 L 11.109375 -0.890625 C 11.191406 -0.804688 11.203125 -0.726562 11.140625 -0.65625 C 11.085938 -0.59375 11.015625 -0.59375 10.921875 -0.65625 L 10.765625 -0.765625 C 10.515625 -0.910156 10.3125 -0.882812 10.15625 -0.6875 L 5.65625 4.6875 C 5.59375 4.757812 5.523438 4.769531 5.453125 4.71875 L 5.359375 4.640625 C 5.210938 4.515625 5.144531 4.34375 5.15625 4.125 L 5.40625 -3.453125 C 5.40625 -3.484375 5.390625 -3.507812 5.359375 -3.53125 C 5.335938 -3.550781 5.304688 -3.53125 5.265625 -3.46875 L 1.859375 0.59375 C 1.703125 0.78125 1.722656 0.992188 1.921875 1.234375 L 2.03125 1.390625 C 2.101562 1.441406 2.109375 1.503906 2.046875 1.578125 C 1.992188 1.648438 1.925781 1.648438 1.84375 1.578125 L 1.203125 1 L 0.359375 0.34375 C 0.273438 0.269531 0.257812 0.195312 0.3125 0.125 C 0.375 0.0507812 0.4375 0.046875 0.5 0.109375 L 0.78125 0.28125 C 1.0625 0.46875 1.285156 0.460938 1.453125 0.265625 L 5.5 -4.5625 C 5.664062 -4.757812 5.644531 -4.972656 5.4375 -5.203125 L 5.296875 -5.34375 C 5.234375 -5.40625 5.234375 -5.472656 5.296875 -5.546875 C 5.359375 -5.617188 5.429688 -5.617188 5.515625 -5.546875 L 6.1875 -4.953125 C 6.34375 -4.804688 6.421875 -4.648438 6.421875 -4.484375 L 6.171875 3.03125 C 6.171875 3.070312 6.179688 3.097656 6.203125 3.109375 C 6.222656 3.128906 6.25 3.125 6.28125 3.09375 Z M 6.28125 3.09375 "/></g></g></g><g fill="#ffffff" fill-opacity="1"><g transform="translate(252.288569, 123.919308)"><g/></g></g><g fill="#ffffff" fill-opacity="1"><g transform="translate(257.944116, 130.207333)"><g><path d="M 5.15625 6.6875 C 5.207031 6.75 5.191406 6.804688 5.109375 6.859375 C 5.035156 6.921875 4.96875 6.910156 4.90625 6.828125 L 4.21875 5.796875 L 3.546875 4.953125 C 3.472656 4.859375 3.476562 4.78125 3.5625 4.71875 C 3.625 4.664062 3.6875 4.671875 3.75 4.734375 L 3.90625 4.875 C 4.09375 5.09375 4.296875 5.117188 4.515625 4.953125 L 6.734375 3.34375 C 6.847656 3.257812 6.867188 3.171875 6.796875 3.078125 L 4.40625 -0.21875 C 4.375 -0.257812 4.332031 -0.28125 4.28125 -0.28125 C 4.226562 -0.289062 4.175781 -0.273438 4.125 -0.234375 L 1.90625 1.375 C 1.6875 1.539062 1.65625 1.742188 1.8125 1.984375 L 1.890625 2.171875 C 1.929688 2.242188 1.921875 2.304688 1.859375 2.359375 C 1.816406 2.378906 1.773438 2.382812 1.734375 2.375 C 1.691406 2.375 1.660156 2.359375 1.640625 2.328125 L 1.015625 1.40625 L 0.25 0.421875 C 0.1875 0.335938 0.191406 0.265625 0.265625 0.203125 C 0.347656 0.148438 0.414062 0.15625 0.46875 0.21875 L 0.6875 0.453125 C 0.78125 0.578125 0.882812 0.648438 1 0.671875 C 1.125 0.703125 1.238281 0.675781 1.34375 0.59375 L 6.4375 -3.09375 C 6.65625 -3.257812 6.679688 -3.488281 6.515625 -3.78125 L 6.34375 -4.0625 C 6.289062 -4.125 6.304688 -4.179688 6.390625 -4.234375 C 6.472656 -4.296875 6.546875 -4.285156 6.609375 -4.203125 L 7.296875 -3.15625 L 8 -2.296875 C 8.0625 -2.210938 8.050781 -2.144531 7.96875 -2.09375 C 7.882812 -2.03125 7.816406 -2.035156 7.765625 -2.109375 L 7.640625 -2.25 C 7.410156 -2.445312 7.195312 -2.46875 7 -2.3125 L 4.890625 -0.78125 C 4.773438 -0.695312 4.757812 -0.597656 4.84375 -0.484375 L 7.203125 2.765625 C 7.285156 2.867188 7.375 2.882812 7.46875 2.8125 L 9.609375 1.265625 C 9.804688 1.109375 9.847656 0.898438 9.734375 0.640625 L 9.625 0.453125 C 9.582031 0.390625 9.59375 0.332031 9.65625 0.28125 C 9.75 0.21875 9.832031 0.234375 9.90625 0.328125 L 10.5 1.234375 L 11.265625 2.203125 C 11.328125 2.285156 11.316406 2.351562 11.234375 2.40625 C 11.148438 2.46875 11.082031 2.46875 11.03125 2.40625 L 10.828125 2.15625 C 10.609375 1.914062 10.390625 1.878906 10.171875 2.046875 L 5.078125 5.734375 C 4.859375 5.898438 4.832031 6.117188 5 6.390625 Z M 5.15625 6.6875 "/></g></g></g><g fill="#ffffff" fill-opacity="1"><g transform="translate(266.190113, 142.405546)"><g><path d="M 2.734375 5.234375 L 0.796875 1.53125 L 0.171875 0.4375 C 0.128906 0.351562 0.148438 0.289062 0.234375 0.25 C 0.328125 0.207031 0.390625 0.222656 0.421875 0.296875 L 0.609375 0.5625 C 0.691406 0.6875 0.785156 0.769531 0.890625 0.8125 C 1.003906 0.863281 1.125 0.859375 1.25 0.796875 L 6.828125 -2.109375 C 7.066406 -2.234375 7.125 -2.457031 7 -2.78125 L 6.859375 -3.0625 C 6.828125 -3.132812 6.851562 -3.191406 6.9375 -3.234375 C 7.03125 -3.285156 7.097656 -3.269531 7.140625 -3.1875 L 7.6875 -2.0625 L 9.515625 1.453125 C 9.578125 1.566406 9.585938 1.679688 9.546875 1.796875 C 9.515625 1.921875 9.453125 2.015625 9.359375 2.078125 L 8.5 2.703125 C 8.40625 2.773438 8.328125 2.753906 8.265625 2.640625 C 8.210938 2.535156 8.226562 2.441406 8.3125 2.359375 C 8.582031 2.085938 8.726562 1.820312 8.75 1.5625 C 8.769531 1.300781 8.691406 0.992188 8.515625 0.640625 L 7.703125 -0.890625 C 7.628906 -1.035156 7.53125 -1.128906 7.40625 -1.171875 C 7.28125 -1.222656 7.144531 -1.207031 7 -1.125 L 4.9375 -0.046875 C 4.851562 -0.00390625 4.832031 0.0546875 4.875 0.140625 L 5.828125 1.96875 C 5.878906 2.0625 5.941406 2.117188 6.015625 2.140625 C 6.085938 2.160156 6.144531 2.171875 6.1875 2.171875 C 6.238281 2.171875 6.320312 2.160156 6.4375 2.140625 L 6.609375 2.109375 C 6.691406 2.085938 6.75 2.113281 6.78125 2.1875 C 6.820312 2.269531 6.796875 2.335938 6.703125 2.390625 L 5.875 2.78125 L 5.0625 3.234375 C 4.976562 3.273438 4.910156 3.257812 4.859375 3.1875 C 4.828125 3.113281 4.84375 3.046875 4.90625 2.984375 L 5.078125 2.875 C 5.390625 2.632812 5.488281 2.410156 5.375 2.203125 L 4.421875 0.359375 C 4.378906 0.285156 4.3125 0.273438 4.21875 0.328125 L 1.9375 1.515625 C 1.789062 1.585938 1.703125 1.6875 1.671875 1.8125 C 1.640625 1.945312 1.660156 2.085938 1.734375 2.234375 L 2.578125 3.859375 C 2.765625 4.191406 3.003906 4.4375 3.296875 4.59375 C 3.585938 4.75 3.921875 4.789062 4.296875 4.71875 C 4.421875 4.707031 4.5 4.738281 4.53125 4.8125 C 4.570312 4.882812 4.582031 4.945312 4.5625 5 C 4.539062 5.050781 4.503906 5.082031 4.453125 5.09375 L 3.359375 5.484375 C 3.234375 5.523438 3.113281 5.523438 3 5.484375 C 2.882812 5.441406 2.796875 5.359375 2.734375 5.234375 Z M 2.734375 5.234375 "/></g></g></g><g fill="#ffffff" fill-opacity="1"><g transform="translate(271.786431, 154.025991)"><g><path d="M 7.359375 -0.265625 L 1.703125 1.765625 C 1.554688 1.816406 1.457031 1.898438 1.40625 2.015625 C 1.363281 2.140625 1.367188 2.28125 1.421875 2.4375 L 1.96875 3.9375 C 2.101562 4.3125 2.304688 4.597656 2.578125 4.796875 C 2.847656 5.003906 3.171875 5.09375 3.546875 5.0625 C 3.671875 5.0625 3.75 5.113281 3.78125 5.21875 C 3.820312 5.332031 3.78125 5.40625 3.65625 5.4375 L 2.5 5.671875 C 2.375 5.703125 2.257812 5.6875 2.15625 5.625 C 2.050781 5.570312 1.972656 5.484375 1.921875 5.359375 L 0.59375 1.625 L 0.109375 0.46875 C 0.078125 0.375 0.109375 0.3125 0.203125 0.28125 C 0.296875 0.25 0.359375 0.269531 0.390625 0.34375 L 0.53125 0.640625 C 0.59375 0.773438 0.675781 0.867188 0.78125 0.921875 C 0.882812 0.984375 1 0.992188 1.125 0.953125 L 7.046875 -1.171875 C 7.304688 -1.265625 7.394531 -1.472656 7.3125 -1.796875 L 7.234375 -2.125 C 7.210938 -2.195312 7.238281 -2.25 7.3125 -2.28125 C 7.40625 -2.3125 7.46875 -2.28125 7.5 -2.1875 L 7.90625 -1 L 8.3125 0.03125 C 8.34375 0.132812 8.316406 0.203125 8.234375 0.234375 C 8.140625 0.265625 8.078125 0.234375 8.046875 0.140625 L 7.953125 -0.015625 C 7.796875 -0.265625 7.597656 -0.347656 7.359375 -0.265625 Z M 7.359375 -0.265625 "/></g></g></g><g fill="#ffffff" fill-opacity="1"><g transform="translate(275.633978, 165.878595)"><g><path d="M 7.34375 0.703125 L 1.46875 1.96875 C 1.3125 2 1.195312 2.070312 1.125 2.1875 C 1.0625 2.300781 1.046875 2.441406 1.078125 2.609375 L 1.421875 4.171875 C 1.503906 4.554688 1.664062 4.863281 1.90625 5.09375 C 2.144531 5.332031 2.457031 5.460938 2.84375 5.484375 C 2.957031 5.503906 3.023438 5.570312 3.046875 5.6875 C 3.078125 5.800781 3.03125 5.867188 2.90625 5.890625 L 1.71875 5.9375 C 1.601562 5.957031 1.492188 5.929688 1.390625 5.859375 C 1.285156 5.796875 1.222656 5.695312 1.203125 5.5625 L 0.359375 1.703125 L 0.0625 0.484375 C 0.03125 0.390625 0.0625 0.332031 0.15625 0.3125 C 0.257812 0.289062 0.320312 0.316406 0.34375 0.390625 L 0.453125 0.703125 C 0.484375 0.847656 0.546875 0.957031 0.640625 1.03125 C 0.734375 1.101562 0.847656 1.125 0.984375 1.09375 L 7.140625 -0.234375 C 7.398438 -0.285156 7.515625 -0.476562 7.484375 -0.8125 L 7.4375 -1.140625 C 7.425781 -1.210938 7.460938 -1.257812 7.546875 -1.28125 C 7.648438 -1.300781 7.71875 -1.265625 7.75 -1.171875 L 7.953125 0.0625 L 8.234375 1.140625 C 8.253906 1.242188 8.21875 1.304688 8.125 1.328125 C 8.019531 1.347656 7.960938 1.3125 7.953125 1.21875 L 7.875 1.03125 C 7.757812 0.757812 7.582031 0.648438 7.34375 0.703125 Z M 7.34375 0.703125 "/></g></g></g><g fill="#ffffff" fill-opacity="1"><g transform="translate(277.88061, 178.129387)"><g><path d="M 0.453125 5.890625 L 0.125 1.734375 L -0.015625 0.484375 C -0.015625 0.378906 0.03125 0.320312 0.125 0.3125 C 0.226562 0.3125 0.28125 0.351562 0.28125 0.4375 L 0.34375 0.765625 C 0.363281 0.910156 0.414062 1.023438 0.5 1.109375 C 0.582031 1.191406 0.691406 1.226562 0.828125 1.21875 L 7.109375 0.75 C 7.378906 0.726562 7.519531 0.546875 7.53125 0.203125 L 7.53125 -0.125 C 7.53125 -0.207031 7.578125 -0.25 7.671875 -0.25 C 7.773438 -0.257812 7.828125 -0.210938 7.828125 -0.109375 L 7.875 1.140625 L 8.1875 5.078125 C 8.195312 5.210938 8.160156 5.328125 8.078125 5.421875 C 8.003906 5.515625 7.90625 5.570312 7.78125 5.59375 L 6.765625 5.828125 C 6.640625 5.859375 6.570312 5.8125 6.5625 5.6875 C 6.550781 5.5625 6.601562 5.476562 6.71875 5.4375 C 7.0625 5.300781 7.296875 5.117188 7.421875 4.890625 C 7.554688 4.660156 7.609375 4.347656 7.578125 3.953125 L 7.453125 2.21875 C 7.429688 2.0625 7.375 1.9375 7.28125 1.84375 C 7.1875 1.75 7.054688 1.707031 6.890625 1.71875 L 4.5625 1.890625 C 4.46875 1.898438 4.425781 1.953125 4.4375 2.046875 L 4.59375 4.09375 C 4.59375 4.195312 4.617188 4.273438 4.671875 4.328125 C 4.734375 4.378906 4.785156 4.414062 4.828125 4.4375 C 4.878906 4.457031 4.960938 4.476562 5.078125 4.5 L 5.234375 4.53125 C 5.316406 4.550781 5.363281 4.601562 5.375 4.6875 C 5.382812 4.78125 5.335938 4.828125 5.234375 4.828125 L 4.28125 4.875 L 3.390625 4.96875 C 3.296875 4.976562 3.238281 4.9375 3.21875 4.84375 C 3.207031 4.757812 3.242188 4.703125 3.328125 4.671875 L 3.53125 4.625 C 3.90625 4.539062 4.085938 4.378906 4.078125 4.140625 L 3.921875 2.078125 C 3.910156 1.992188 3.851562 1.953125 3.75 1.953125 L 1.1875 2.15625 C 1.03125 2.164062 0.910156 2.222656 0.828125 2.328125 C 0.742188 2.429688 0.710938 2.5625 0.734375 2.71875 L 0.875 4.546875 C 0.894531 4.929688 1.007812 5.253906 1.21875 5.515625 C 1.425781 5.785156 1.71875 5.957031 2.09375 6.03125 C 2.207031 6.0625 2.269531 6.117188 2.28125 6.203125 C 2.289062 6.285156 2.273438 6.347656 2.234375 6.390625 C 2.191406 6.429688 2.144531 6.445312 2.09375 6.4375 L 0.921875 6.359375 C 0.796875 6.347656 0.6875 6.300781 0.59375 6.21875 C 0.507812 6.132812 0.460938 6.023438 0.453125 5.890625 Z M 0.453125 5.890625 "/></g></g></g><g fill="#ffffff" fill-opacity="1"><g transform="translate(278.467439, 191.003678)"><g><path d="M 4.28125 5.265625 C 4.539062 5.628906 4.90625 5.828125 5.375 5.859375 C 5.84375 5.890625 6.222656 5.742188 6.515625 5.421875 C 6.816406 5.097656 6.984375 4.679688 7.015625 4.171875 L 7.078125 3.125 C 7.097656 2.832031 6.960938 2.679688 6.671875 2.671875 L 4.171875 2.5 C 4.078125 2.5 4.023438 2.539062 4.015625 2.625 L 3.9375 3.984375 C 3.90625 4.484375 4.019531 4.910156 4.28125 5.265625 Z M 7.5 4.5625 C 7.445312 5.269531 7.222656 5.835938 6.828125 6.265625 C 6.441406 6.703125 5.953125 6.898438 5.359375 6.859375 C 4.765625 6.828125 4.289062 6.578125 3.9375 6.109375 C 3.582031 5.640625 3.410156 5.128906 3.421875 4.578125 L 3.40625 4.5625 C 3.351562 4.71875 3.25 4.835938 3.09375 4.921875 L 0.328125 6.421875 C 0.0546875 6.554688 -0.109375 6.789062 -0.171875 7.125 L -0.21875 7.328125 C -0.226562 7.421875 -0.273438 7.460938 -0.359375 7.453125 C -0.460938 7.453125 -0.507812 7.394531 -0.5 7.28125 C -0.425781 6.570312 -0.382812 6.128906 -0.375 5.953125 C -0.363281 5.785156 -0.28125 5.65625 -0.125 5.5625 L 3.109375 3.890625 C 3.347656 3.765625 3.472656 3.613281 3.484375 3.4375 C 3.484375 3.4375 3.484375 3.429688 3.484375 3.421875 L 3.53125 2.625 C 3.539062 2.519531 3.5 2.460938 3.40625 2.453125 L 0.59375 2.28125 C 0.457031 2.269531 0.34375 2.304688 0.25 2.390625 C 0.164062 2.484375 0.117188 2.601562 0.109375 2.75 L 0.046875 3.203125 C 0.046875 3.285156 0 3.320312 -0.09375 3.3125 C -0.195312 3.3125 -0.25 3.257812 -0.25 3.15625 L -0.109375 1.78125 L -0.078125 0.546875 C -0.078125 0.453125 -0.03125 0.394531 0.0625 0.375 C 0.164062 0.382812 0.21875 0.4375 0.21875 0.53125 L 0.234375 0.84375 C 0.234375 1.144531 0.375 1.304688 0.65625 1.328125 L 6.9375 1.71875 C 7.207031 1.738281 7.367188 1.582031 7.421875 1.25 L 7.46875 0.921875 C 7.488281 0.835938 7.539062 0.800781 7.625 0.8125 C 7.726562 0.8125 7.773438 0.863281 7.765625 0.96875 L 7.625 2.5 Z M 7.5 4.5625 "/></g></g></g><g fill="#ffffff" fill-opacity="1"><g transform="translate(277.14975, 204.212022)"><g/></g></g></svg>