<svg xmlns="http://www.w3.org/2000/svg" xmlns:xlink="http://www.w3.org/1999/xlink" width="100" zoomAndPan="magnify" viewBox="0 0 75 74.999997" height="100" preserveAspectRatio="xMidYMid meet" version="1.0"><defs><g/><clipPath id="c710d6ffa1"><path d="M 7.925781 7.488281 L 67.25 7.488281 L 67.25 66.8125 L 7.925781 66.8125 Z M 7.925781 7.488281 " clip-rule="nonzero"/></clipPath><clipPath id="b2fffdeac8"><path d="M 37.589844 7.488281 C 21.207031 7.488281 7.925781 20.769531 7.925781 37.152344 C 7.925781 53.53125 21.207031 66.8125 37.589844 66.8125 C 53.972656 66.8125 67.25 53.53125 67.25 37.152344 C 67.25 20.769531 53.972656 7.488281 37.589844 7.488281 " clip-rule="nonzero"/></clipPath><clipPath id="421ec055c0"><path d="M 9 9 L 66 9 L 66 65 L 9 65 Z M 9 9 " clip-rule="nonzero"/></clipPath><clipPath id="53dce47095"><path d="M -1.5 35.382812 L 30.132812 6.570312 L 67.296875 47.371094 L 35.664062 76.183594 Z M -1.5 35.382812 " clip-rule="nonzero"/></clipPath><clipPath id="b934d25cab"><path d="M -1.5 35.382812 L 39.300781 -1.78125 L 76.464844 39.019531 L 35.664062 76.183594 Z M -1.5 35.382812 " clip-rule="nonzero"/></clipPath></defs><g clip-path="url(#c710d6ffa1)"><g clip-path="url(#b2fffdeac8)"><path stroke-linecap="butt" transform="matrix(0.206758, 0, 0, 0.206758, 7.927467, 7.489418)" fill="none" stroke-linejoin="miter" d="M 143.464257 -0.00549676 C 64.227585 -0.00549676 -0.00815331 64.230241 -0.00815331 143.466913 C -0.00815331 222.684693 64.227585 286.920431 143.464257 286.920431 C 222.700929 286.920431 286.917774 222.684693 286.917774 143.466913 C 286.917774 64.230241 222.700929 -0.00549676 143.464257 -0.00549676 " stroke="#ffffff" stroke-width="7.256834" stroke-opacity="1" stroke-miterlimit="4"/></g></g><g clip-path="url(#421ec055c0)"><g clip-path="url(#53dce47095)"><g clip-path="url(#b934d25cab)"><path fill="#ffffff" d="M 56.066406 57.601562 C 44.820312 67.84375 27.324219 67.027344 17.082031 55.785156 C 6.839844 44.539062 7.65625 27.042969 18.902344 16.800781 C 30.148438 6.558594 47.640625 7.375 57.882812 18.621094 C 68.125 29.867188 67.308594 47.359375 56.066406 57.601562 Z M 19.175781 17.101562 C 8.089844 27.199219 7.289062 44.425781 17.382812 55.507812 C 27.480469 66.59375 44.707031 67.398438 55.789062 57.300781 C 66.875 47.203125 67.679688 29.980469 57.582031 18.894531 C 47.484375 7.808594 30.261719 7.007812 19.175781 17.101562 Z M 19.175781 17.101562 " fill-opacity="1" fill-rule="nonzero"/></g></g></g><g fill="#ffffff" fill-opacity="1"><g transform="translate(19.063014, 47.794005)"><g><path d="M 13.609375 -19.035156 C 13.609375 -13.144531 5.195312 -12.410156 5.195312 -10.515625 C 5.195312 -9.316406 7.128906 -9.800781 9.464844 -6.308594 C 12.789062 -1.324219 13.378906 0 14.34375 0 L 17.5625 0 L 17.5625 -0.210938 C 15.164062 -0.210938 13.1875 -3.933594 11.210938 -6.878906 C 9.191406 -9.90625 5.40625 -9.316406 5.40625 -10.515625 C 5.40625 -11.882812 15.585938 -12.578125 15.585938 -19.078125 C 15.585938 -19.855469 15.332031 -20.675781 14.957031 -21.035156 L 12.871094 -21.035156 C 13.335938 -20.699219 13.609375 -19.8125 13.609375 -19.035156 Z M 0.632812 0 L 6.289062 0 L 6.289062 -0.210938 C 4.480469 -0.210938 4.355469 -1.703125 4.355469 -5.847656 L 4.355469 -15.1875 C 4.355469 -19.332031 4.480469 -20.824219 6.289062 -20.824219 L 6.289062 -21.035156 L 0.632812 -21.035156 L 0.632812 -20.824219 C 2.441406 -20.824219 2.566406 -19.332031 2.566406 -15.1875 L 2.566406 -5.847656 C 2.566406 -1.703125 2.441406 -0.210938 0.632812 -0.210938 Z M 0.632812 0 "/></g></g></g><g fill="#ffffff" fill-opacity="1"><g transform="translate(36.834948, 47.794005)"><g><path d="M 6.308594 0 L 6.308594 -0.210938 C 4.5 -0.210938 4.375 -1.703125 4.375 -5.847656 L 4.375 -10.328125 C 4.375 -11.316406 4.753906 -12.179688 5.847656 -12.179688 C 7.339844 -12.179688 9.003906 -10.328125 11.570312 -10.328125 C 13.230469 -10.328125 14.261719 -11.402344 14.261719 -12.640625 L 14.050781 -12.640625 C 14.050781 -11.90625 13.292969 -11.441406 12.496094 -11.441406 C 10.644531 -11.441406 8.898438 -12.746094 6.816406 -12.746094 C 5.554688 -12.746094 4.628906 -12.074219 4.375 -11.503906 L 4.375 -15.1875 C 4.375 -19.332031 4.5 -20.824219 6.308594 -20.824219 L 6.308594 -21.035156 L 0.632812 -21.035156 L 0.632812 -20.824219 C 2.441406 -20.824219 2.566406 -19.332031 2.566406 -15.1875 L 2.566406 -5.847656 C 2.566406 -1.703125 2.441406 -0.210938 0.632812 -0.210938 L 0.632812 0 Z M 12.957031 -20.824219 C 14.765625 -20.824219 14.890625 -19.332031 14.890625 -15.1875 L 14.890625 -5.847656 C 14.890625 -1.703125 14.765625 -0.210938 12.957031 -0.210938 L 12.957031 0 L 18.636719 0 L 18.636719 -0.210938 C 16.828125 -0.210938 16.699219 -1.703125 16.699219 -5.847656 L 16.699219 -15.1875 C 16.699219 -19.332031 16.828125 -20.824219 18.636719 -20.824219 L 18.636719 -21.035156 L 12.957031 -21.035156 Z M 12.957031 -20.824219 "/></g></g></g><g fill="#ffffff" fill-opacity="1"><g transform="translate(35.453832, 11.758022)"><g><path d="M 1.5 -2.09375 L 1.484375 -2.171875 C 1.484375 -2.191406 1.492188 -2.203125 1.515625 -2.203125 L 1.6875 -2.1875 L 1.984375 -2.21875 C 2.015625 -2.21875 2.03125 -2.203125 2.03125 -2.171875 C 2.03125 -2.148438 2.019531 -2.140625 2 -2.140625 L 1.90625 -2.109375 C 1.832031 -2.109375 1.769531 -2.066406 1.71875 -1.984375 L 1.0625 -1.21875 C 1.03125 -1.1875 0.992188 -1.160156 0.953125 -1.140625 C 0.992188 -1.117188 1.03125 -1.09375 1.0625 -1.0625 L 1.84375 -0.25 C 1.914062 -0.175781 1.984375 -0.140625 2.046875 -0.140625 L 2.140625 -0.140625 C 2.160156 -0.140625 2.171875 -0.125 2.171875 -0.09375 C 2.171875 -0.0703125 2.15625 -0.0625 2.125 -0.0625 C 1.882812 -0.0507812 1.742188 -0.046875 1.703125 -0.046875 C 1.671875 -0.046875 1.632812 -0.0664062 1.59375 -0.109375 L 0.828125 -0.9375 C 0.773438 -0.988281 0.726562 -1.015625 0.6875 -1.015625 C 0.6875 -1.015625 0.679688 -1.015625 0.671875 -1.015625 L 0.609375 -1.015625 C 0.585938 -1.015625 0.578125 -1.003906 0.578125 -0.984375 L 0.609375 -0.21875 C 0.609375 -0.132812 0.640625 -0.09375 0.703125 -0.09375 L 0.734375 -0.09375 C 0.753906 -0.0820312 0.765625 -0.0664062 0.765625 -0.046875 C 0.765625 -0.015625 0.75 0 0.71875 0 L 0.484375 -0.015625 L 0.1875 0.015625 C 0.15625 0.015625 0.140625 0.00390625 0.140625 -0.015625 C 0.140625 -0.046875 0.148438 -0.0664062 0.171875 -0.078125 L 0.234375 -0.078125 C 0.316406 -0.0976562 0.359375 -0.144531 0.359375 -0.21875 L 0.3125 -1.953125 C 0.300781 -2.023438 0.25 -2.0625 0.15625 -2.0625 L 0.0625 -2.078125 C 0.0390625 -2.078125 0.03125 -2.085938 0.03125 -2.109375 C 0.03125 -2.140625 0.046875 -2.15625 0.078125 -2.15625 L 0.421875 -2.15625 L 0.65625 -2.171875 C 0.6875 -2.171875 0.703125 -2.15625 0.703125 -2.125 C 0.703125 -2.101562 0.6875 -2.09375 0.65625 -2.09375 L 0.640625 -2.078125 C 0.578125 -2.078125 0.550781 -2.035156 0.5625 -1.953125 L 0.578125 -1.1875 C 0.578125 -1.164062 0.585938 -1.15625 0.609375 -1.15625 L 0.6875 -1.15625 C 0.738281 -1.15625 0.789062 -1.191406 0.84375 -1.265625 L 1.46875 -2 C 1.488281 -2.03125 1.5 -2.0625 1.5 -2.09375 Z M 1.5 -2.09375 "/></g></g></g><g fill="#ffffff" fill-opacity="1"><g transform="translate(39.175067, 11.774752)"><g><path d="M 1.609375 0.1875 L 0.484375 0.0625 L 0.140625 0.03125 C 0.109375 0.03125 0.09375 0.015625 0.09375 -0.015625 C 0.101562 -0.046875 0.117188 -0.0625 0.140625 -0.0625 L 0.234375 -0.046875 C 0.273438 -0.046875 0.304688 -0.0507812 0.328125 -0.0625 C 0.359375 -0.0820312 0.375 -0.113281 0.375 -0.15625 L 0.578125 -1.875 C 0.585938 -1.945312 0.546875 -1.992188 0.453125 -2.015625 L 0.359375 -2.046875 C 0.335938 -2.046875 0.328125 -2.054688 0.328125 -2.078125 C 0.335938 -2.109375 0.359375 -2.125 0.390625 -2.125 L 0.734375 -2.0625 L 1.796875 -1.953125 C 1.835938 -1.941406 1.867188 -1.925781 1.890625 -1.90625 C 1.910156 -1.882812 1.921875 -1.851562 1.921875 -1.8125 L 1.9375 -1.515625 C 1.925781 -1.484375 1.90625 -1.46875 1.875 -1.46875 C 1.84375 -1.476562 1.828125 -1.5 1.828125 -1.53125 C 1.804688 -1.625 1.765625 -1.695312 1.703125 -1.75 C 1.640625 -1.800781 1.554688 -1.832031 1.453125 -1.84375 L 0.984375 -1.890625 C 0.941406 -1.898438 0.90625 -1.894531 0.875 -1.875 C 0.84375 -1.851562 0.820312 -1.820312 0.8125 -1.78125 L 0.75 -1.140625 C 0.738281 -1.117188 0.75 -1.101562 0.78125 -1.09375 L 1.328125 -1.03125 C 1.359375 -1.03125 1.382812 -1.03125 1.40625 -1.03125 C 1.425781 -1.039062 1.4375 -1.050781 1.4375 -1.0625 C 1.445312 -1.070312 1.457031 -1.09375 1.46875 -1.125 L 1.5 -1.171875 C 1.507812 -1.191406 1.523438 -1.203125 1.546875 -1.203125 C 1.566406 -1.203125 1.578125 -1.191406 1.578125 -1.171875 L 1.515625 -0.671875 C 1.515625 -0.648438 1.503906 -0.632812 1.484375 -0.625 C 1.453125 -0.625 1.4375 -0.640625 1.4375 -0.671875 L 1.421875 -0.71875 C 1.421875 -0.820312 1.382812 -0.878906 1.3125 -0.890625 L 0.765625 -0.953125 C 0.734375 -0.960938 0.71875 -0.957031 0.71875 -0.9375 L 0.640625 -0.21875 C 0.640625 -0.175781 0.648438 -0.140625 0.671875 -0.109375 C 0.703125 -0.078125 0.738281 -0.0546875 0.78125 -0.046875 L 1.265625 0 C 1.378906 0.0078125 1.472656 -0.00390625 1.546875 -0.046875 C 1.628906 -0.0859375 1.691406 -0.160156 1.734375 -0.265625 C 1.753906 -0.296875 1.773438 -0.304688 1.796875 -0.296875 C 1.828125 -0.296875 1.84375 -0.289062 1.84375 -0.28125 C 1.84375 -0.269531 1.84375 -0.253906 1.84375 -0.234375 L 1.765625 0.078125 C 1.765625 0.109375 1.75 0.132812 1.71875 0.15625 C 1.6875 0.175781 1.648438 0.1875 1.609375 0.1875 Z M 1.609375 0.1875 "/></g></g></g><g fill="#ffffff" fill-opacity="1"><g transform="translate(42.690889, 12.28699)"><g><path d="M 1.578125 0.40625 L 0.46875 0.125 L 0.140625 0.046875 C 0.109375 0.0351562 0.09375 0.015625 0.09375 -0.015625 C 0.101562 -0.046875 0.117188 -0.0546875 0.140625 -0.046875 L 0.234375 -0.03125 C 0.265625 -0.0195312 0.296875 -0.0195312 0.328125 -0.03125 C 0.359375 -0.0390625 0.378906 -0.0664062 0.390625 -0.109375 L 0.828125 -1.78125 C 0.847656 -1.851562 0.816406 -1.910156 0.734375 -1.953125 L 0.640625 -1.984375 C 0.617188 -1.992188 0.609375 -2.007812 0.609375 -2.03125 C 0.617188 -2.0625 0.640625 -2.070312 0.671875 -2.0625 L 1 -1.953125 L 2.046875 -1.6875 C 2.085938 -1.675781 2.117188 -1.65625 2.140625 -1.625 C 2.160156 -1.601562 2.164062 -1.570312 2.15625 -1.53125 L 2.125 -1.25 C 2.113281 -1.21875 2.09375 -1.207031 2.0625 -1.21875 C 2.039062 -1.226562 2.03125 -1.25 2.03125 -1.28125 C 2.019531 -1.375 1.988281 -1.445312 1.9375 -1.5 C 1.882812 -1.5625 1.804688 -1.601562 1.703125 -1.625 L 1.234375 -1.75 C 1.203125 -1.757812 1.164062 -1.753906 1.125 -1.734375 C 1.09375 -1.710938 1.070312 -1.679688 1.0625 -1.640625 L 0.890625 -1.03125 C 0.890625 -1 0.90625 -0.984375 0.9375 -0.984375 L 1.484375 -0.84375 C 1.503906 -0.832031 1.519531 -0.832031 1.53125 -0.84375 C 1.550781 -0.851562 1.566406 -0.859375 1.578125 -0.859375 C 1.585938 -0.867188 1.601562 -0.890625 1.625 -0.921875 L 1.640625 -0.953125 C 1.660156 -0.972656 1.679688 -0.976562 1.703125 -0.96875 C 1.722656 -0.96875 1.726562 -0.957031 1.71875 -0.9375 L 1.59375 -0.4375 C 1.59375 -0.414062 1.578125 -0.40625 1.546875 -0.40625 C 1.515625 -0.40625 1.503906 -0.421875 1.515625 -0.453125 L 1.515625 -0.515625 C 1.523438 -0.617188 1.5 -0.679688 1.4375 -0.703125 L 0.890625 -0.84375 C 0.859375 -0.84375 0.84375 -0.832031 0.84375 -0.8125 L 0.65625 -0.109375 C 0.644531 -0.078125 0.648438 -0.046875 0.671875 -0.015625 C 0.703125 0.015625 0.734375 0.0351562 0.765625 0.046875 L 1.25 0.171875 C 1.363281 0.203125 1.460938 0.203125 1.546875 0.171875 C 1.640625 0.140625 1.710938 0.078125 1.765625 -0.015625 C 1.785156 -0.046875 1.804688 -0.0546875 1.828125 -0.046875 C 1.847656 -0.0351562 1.859375 -0.0234375 1.859375 -0.015625 C 1.859375 -0.00390625 1.859375 0.0078125 1.859375 0.03125 L 1.734375 0.3125 C 1.722656 0.34375 1.703125 0.367188 1.671875 0.390625 C 1.648438 0.410156 1.617188 0.414062 1.578125 0.40625 Z M 1.578125 0.40625 "/></g></g></g><g fill="#ffffff" fill-opacity="1"><g transform="translate(46.100297, 13.267636)"><g><path d="M 1.90625 0.296875 L 2.484375 -1.0625 C 2.515625 -1.132812 2.484375 -1.191406 2.390625 -1.234375 L 2.328125 -1.28125 C 2.296875 -1.289062 2.285156 -1.304688 2.296875 -1.328125 C 2.304688 -1.347656 2.328125 -1.351562 2.359375 -1.34375 L 2.625 -1.21875 L 2.859375 -1.140625 C 2.878906 -1.128906 2.882812 -1.113281 2.875 -1.09375 C 2.863281 -1.070312 2.847656 -1.066406 2.828125 -1.078125 L 2.78125 -1.078125 C 2.707031 -1.097656 2.65625 -1.070312 2.625 -1 L 1.875 0.78125 C 1.863281 0.800781 1.847656 0.804688 1.828125 0.796875 L 1.78125 0.78125 C 1.738281 0.757812 1.710938 0.71875 1.703125 0.65625 L 1.140625 -1.359375 C 1.140625 -1.367188 1.132812 -1.375 1.125 -1.375 C 1.125 -1.382812 1.117188 -1.378906 1.109375 -1.359375 L 0.546875 0 C 0.515625 0.0625 0.535156 0.113281 0.609375 0.15625 L 0.65625 0.1875 C 0.675781 0.207031 0.679688 0.226562 0.671875 0.25 C 0.660156 0.28125 0.644531 0.289062 0.625 0.28125 L 0.40625 0.171875 L 0.125 0.0625 C 0.101562 0.0507812 0.0976562 0.03125 0.109375 0 C 0.117188 -0.0195312 0.128906 -0.03125 0.140625 -0.03125 L 0.234375 0 C 0.316406 0.03125 0.375 0.015625 0.40625 -0.046875 L 1.078125 -1.640625 C 1.109375 -1.710938 1.085938 -1.769531 1.015625 -1.8125 L 0.953125 -1.84375 C 0.929688 -1.863281 0.925781 -1.882812 0.9375 -1.90625 C 0.945312 -1.925781 0.96875 -1.925781 1 -1.90625 L 1.234375 -1.796875 C 1.273438 -1.773438 1.300781 -1.742188 1.3125 -1.703125 L 1.875 0.296875 C 1.882812 0.304688 1.890625 0.3125 1.890625 0.3125 C 1.898438 0.3125 1.90625 0.304688 1.90625 0.296875 Z M 1.90625 0.296875 "/></g></g></g><g fill="#ffffff" fill-opacity="1"><g transform="translate(49.679031, 14.901749)"><g><path d="M 1.03125 -0.359375 L 1.609375 0 C 1.628906 0.0078125 1.644531 0.00390625 1.65625 -0.015625 L 1.8125 -1.015625 L 1.03125 -0.40625 C 1.007812 -0.382812 1.007812 -0.367188 1.03125 -0.359375 Z M 0.453125 0.046875 C 0.441406 0.0546875 0.429688 0.0664062 0.421875 0.078125 C 0.421875 0.0859375 0.421875 0.101562 0.421875 0.125 C 0.429688 0.15625 0.445312 0.179688 0.46875 0.203125 L 0.53125 0.234375 C 0.539062 0.253906 0.539062 0.269531 0.53125 0.28125 C 0.507812 0.3125 0.488281 0.320312 0.46875 0.3125 L 0.25 0.15625 L 0 0.03125 C -0.03125 0.0078125 -0.0351562 -0.0078125 -0.015625 -0.03125 C 0.00390625 -0.0625 0.0234375 -0.0703125 0.046875 -0.0625 L 0.09375 -0.03125 C 0.164062 0 0.238281 -0.00390625 0.3125 -0.046875 L 1.984375 -1.296875 C 1.992188 -1.316406 2.015625 -1.316406 2.046875 -1.296875 C 2.085938 -1.273438 2.109375 -1.25 2.109375 -1.21875 L 1.78125 0.84375 C 1.757812 0.925781 1.785156 0.992188 1.859375 1.046875 L 1.921875 1.078125 C 1.921875 1.078125 1.921875 1.082031 1.921875 1.09375 C 1.921875 1.101562 1.914062 1.113281 1.90625 1.125 C 1.882812 1.15625 1.867188 1.164062 1.859375 1.15625 L 1.5625 0.953125 L 1.28125 0.796875 C 1.25 0.785156 1.242188 0.765625 1.265625 0.734375 C 1.273438 0.722656 1.300781 0.71875 1.34375 0.71875 L 1.390625 0.75 C 1.421875 0.769531 1.445312 0.773438 1.46875 0.765625 C 1.488281 0.753906 1.5 0.742188 1.5 0.734375 C 1.507812 0.722656 1.519531 0.707031 1.53125 0.6875 L 1.609375 0.1875 C 1.609375 0.175781 1.601562 0.164062 1.59375 0.15625 L 0.90625 -0.265625 C 0.882812 -0.273438 0.863281 -0.273438 0.84375 -0.265625 Z M 0.453125 0.046875 "/></g></g></g><g fill="#ffffff" fill-opacity="1"><g transform="translate(52.862308, 16.971808)"><g><path d="M 1.734375 0.859375 L 2.6875 -0.28125 C 2.726562 -0.34375 2.71875 -0.40625 2.65625 -0.46875 L 2.59375 -0.53125 C 2.570312 -0.550781 2.570312 -0.570312 2.59375 -0.59375 C 2.613281 -0.613281 2.632812 -0.613281 2.65625 -0.59375 L 2.875 -0.390625 L 3.078125 -0.25 C 3.097656 -0.226562 3.097656 -0.207031 3.078125 -0.1875 C 3.054688 -0.164062 3.035156 -0.164062 3.015625 -0.1875 L 2.984375 -0.1875 C 2.910156 -0.25 2.851562 -0.25 2.8125 -0.1875 L 1.5625 1.296875 C 1.550781 1.316406 1.535156 1.320312 1.515625 1.3125 L 1.484375 1.28125 C 1.441406 1.25 1.425781 1.203125 1.4375 1.140625 L 1.484375 -0.953125 C 1.492188 -0.960938 1.492188 -0.96875 1.484375 -0.96875 C 1.484375 -0.976562 1.476562 -0.972656 1.46875 -0.953125 L 0.515625 0.171875 C 0.472656 0.222656 0.476562 0.28125 0.53125 0.34375 L 0.5625 0.375 C 0.582031 0.40625 0.582031 0.429688 0.5625 0.453125 C 0.539062 0.472656 0.519531 0.472656 0.5 0.453125 L 0.328125 0.28125 L 0.09375 0.109375 C 0.0703125 0.0859375 0.0703125 0.0664062 0.09375 0.046875 C 0.113281 0.0234375 0.128906 0.015625 0.140625 0.015625 L 0.21875 0.078125 C 0.300781 0.128906 0.363281 0.128906 0.40625 0.078125 L 1.53125 -1.25 C 1.570312 -1.3125 1.566406 -1.367188 1.515625 -1.421875 L 1.453125 -1.46875 C 1.441406 -1.488281 1.445312 -1.507812 1.46875 -1.53125 C 1.488281 -1.550781 1.507812 -1.550781 1.53125 -1.53125 L 1.703125 -1.359375 C 1.742188 -1.328125 1.765625 -1.285156 1.765625 -1.234375 L 1.71875 0.84375 C 1.707031 0.851562 1.703125 0.859375 1.703125 0.859375 C 1.710938 0.867188 1.722656 0.867188 1.734375 0.859375 Z M 1.734375 0.859375 "/></g></g></g><g fill="#ffffff" fill-opacity="1"><g transform="translate(55.799876, 19.621263)"><g/></g></g><g fill="#ffffff" fill-opacity="1"><g transform="translate(57.358554, 21.354256)"><g><path d="M 1.4375 1.84375 C 1.445312 1.851562 1.4375 1.867188 1.40625 1.890625 C 1.382812 1.910156 1.367188 1.914062 1.359375 1.90625 L 1.171875 1.609375 L 0.96875 1.375 C 0.945312 1.34375 0.953125 1.316406 0.984375 1.296875 C 0.992188 1.285156 1.015625 1.289062 1.046875 1.3125 L 1.078125 1.34375 C 1.128906 1.394531 1.1875 1.398438 1.25 1.359375 L 1.859375 0.921875 C 1.890625 0.898438 1.894531 0.875 1.875 0.84375 L 1.21875 -0.046875 C 1.207031 -0.0664062 1.191406 -0.078125 1.171875 -0.078125 C 1.160156 -0.078125 1.148438 -0.0703125 1.140625 -0.0625 L 0.53125 0.375 C 0.46875 0.414062 0.457031 0.472656 0.5 0.546875 L 0.53125 0.59375 C 0.53125 0.625 0.523438 0.644531 0.515625 0.65625 C 0.503906 0.65625 0.488281 0.65625 0.46875 0.65625 C 0.457031 0.65625 0.445312 0.648438 0.4375 0.640625 L 0.28125 0.390625 L 0.0625 0.125 C 0.0507812 0.101562 0.0546875 0.0820312 0.078125 0.0625 C 0.109375 0.0390625 0.128906 0.0351562 0.140625 0.046875 L 0.1875 0.125 C 0.21875 0.164062 0.25 0.191406 0.28125 0.203125 C 0.3125 0.210938 0.347656 0.203125 0.390625 0.171875 L 1.78125 -0.84375 C 1.84375 -0.882812 1.847656 -0.953125 1.796875 -1.046875 L 1.765625 -1.125 C 1.753906 -1.132812 1.757812 -1.144531 1.78125 -1.15625 C 1.800781 -1.175781 1.816406 -1.175781 1.828125 -1.15625 L 2.015625 -0.875 L 2.203125 -0.640625 C 2.222656 -0.609375 2.222656 -0.585938 2.203125 -0.578125 C 2.179688 -0.554688 2.164062 -0.554688 2.15625 -0.578125 L 2.109375 -0.625 C 2.046875 -0.675781 1.984375 -0.679688 1.921875 -0.640625 L 1.34375 -0.21875 C 1.3125 -0.1875 1.304688 -0.15625 1.328125 -0.125 L 1.984375 0.765625 C 2.003906 0.796875 2.03125 0.796875 2.0625 0.765625 L 2.640625 0.34375 C 2.703125 0.300781 2.71875 0.242188 2.6875 0.171875 L 2.671875 0.140625 C 2.648438 0.109375 2.644531 0.0859375 2.65625 0.078125 C 2.6875 0.0546875 2.710938 0.0625 2.734375 0.09375 L 2.90625 0.34375 L 3.125 0.625 C 3.132812 0.632812 3.128906 0.644531 3.109375 0.65625 C 3.085938 0.675781 3.070312 0.679688 3.0625 0.671875 L 2.984375 0.59375 C 2.921875 0.53125 2.859375 0.519531 2.796875 0.5625 L 1.40625 1.578125 C 1.34375 1.617188 1.332031 1.679688 1.375 1.765625 Z M 1.4375 1.84375 "/></g></g></g><g fill="#ffffff" fill-opacity="1"><g transform="translate(59.631166, 24.716113)"><g><path d="M 0.75 1.4375 L 0.21875 0.421875 L 0.046875 0.125 C 0.0351562 0.09375 0.0390625 0.0703125 0.0625 0.0625 C 0.09375 0.0507812 0.113281 0.0546875 0.125 0.078125 L 0.15625 0.15625 C 0.175781 0.195312 0.203125 0.222656 0.234375 0.234375 C 0.273438 0.242188 0.316406 0.238281 0.359375 0.21875 L 1.890625 -0.578125 C 1.953125 -0.617188 1.960938 -0.679688 1.921875 -0.765625 L 1.90625 -0.859375 C 1.894531 -0.878906 1.898438 -0.894531 1.921875 -0.90625 C 1.941406 -0.914062 1.957031 -0.90625 1.96875 -0.875 L 2.109375 -0.5625 L 2.609375 0.40625 C 2.628906 0.4375 2.632812 0.46875 2.625 0.5 C 2.625 0.53125 2.601562 0.554688 2.5625 0.578125 L 2.34375 0.75 C 2.320312 0.757812 2.300781 0.75 2.28125 0.71875 C 2.269531 0.695312 2.273438 0.675781 2.296875 0.65625 C 2.359375 0.582031 2.394531 0.507812 2.40625 0.4375 C 2.414062 0.363281 2.394531 0.28125 2.34375 0.1875 L 2.125 -0.25 C 2.101562 -0.28125 2.070312 -0.300781 2.03125 -0.3125 C 2 -0.332031 1.96875 -0.332031 1.9375 -0.3125 L 1.359375 -0.015625 C 1.328125 -0.00390625 1.316406 0.0078125 1.328125 0.03125 L 1.59375 0.53125 C 1.601562 0.5625 1.617188 0.578125 1.640625 0.578125 C 1.671875 0.585938 1.691406 0.59375 1.703125 0.59375 C 1.710938 0.59375 1.738281 0.59375 1.78125 0.59375 L 1.8125 0.578125 C 1.84375 0.578125 1.863281 0.585938 1.875 0.609375 C 1.882812 0.628906 1.878906 0.644531 1.859375 0.65625 L 1.625 0.78125 L 1.40625 0.890625 C 1.382812 0.898438 1.363281 0.898438 1.34375 0.890625 C 1.320312 0.859375 1.328125 0.832031 1.359375 0.8125 L 1.40625 0.78125 C 1.488281 0.71875 1.515625 0.65625 1.484375 0.59375 L 1.21875 0.09375 C 1.207031 0.0703125 1.191406 0.0664062 1.171875 0.078125 L 0.53125 0.421875 C 0.488281 0.441406 0.460938 0.46875 0.453125 0.5 C 0.453125 0.539062 0.460938 0.578125 0.484375 0.609375 L 0.703125 1.0625 C 0.765625 1.164062 0.832031 1.234375 0.90625 1.265625 C 0.988281 1.304688 1.082031 1.320312 1.1875 1.3125 C 1.21875 1.300781 1.238281 1.304688 1.25 1.328125 C 1.257812 1.347656 1.265625 1.363281 1.265625 1.375 C 1.265625 1.382812 1.253906 1.394531 1.234375 1.40625 L 0.921875 1.5 C 0.890625 1.519531 0.859375 1.523438 0.828125 1.515625 C 0.796875 1.503906 0.769531 1.476562 0.75 1.4375 Z M 0.75 1.4375 "/></g></g></g><g fill="#ffffff" fill-opacity="1"><g transform="translate(61.173531, 27.918734)"><g><path d="M 2.03125 -0.078125 L 0.46875 0.484375 C 0.425781 0.492188 0.394531 0.515625 0.375 0.546875 C 0.363281 0.585938 0.367188 0.628906 0.390625 0.671875 L 0.53125 1.078125 C 0.570312 1.191406 0.628906 1.273438 0.703125 1.328125 C 0.785156 1.390625 0.878906 1.410156 0.984375 1.390625 C 1.015625 1.390625 1.035156 1.40625 1.046875 1.4375 C 1.054688 1.46875 1.039062 1.488281 1 1.5 L 0.703125 1.5625 C 0.671875 1.570312 0.632812 1.566406 0.59375 1.546875 C 0.5625 1.535156 0.539062 1.507812 0.53125 1.46875 L 0.15625 0.453125 L 0.03125 0.125 C 0.0195312 0.101562 0.03125 0.0859375 0.0625 0.078125 C 0.09375 0.0664062 0.113281 0.0703125 0.125 0.09375 L 0.15625 0.171875 C 0.164062 0.210938 0.179688 0.242188 0.203125 0.265625 C 0.234375 0.285156 0.269531 0.289062 0.3125 0.28125 L 1.953125 -0.3125 C 2.015625 -0.332031 2.035156 -0.394531 2.015625 -0.5 L 2 -0.578125 C 1.988281 -0.597656 1.992188 -0.613281 2.015625 -0.625 C 2.046875 -0.632812 2.066406 -0.628906 2.078125 -0.609375 L 2.171875 -0.265625 L 2.296875 0 C 2.304688 0.03125 2.300781 0.0507812 2.28125 0.0625 C 2.25 0.0703125 2.226562 0.0664062 2.21875 0.046875 L 2.1875 -0.015625 C 2.144531 -0.078125 2.09375 -0.0976562 2.03125 -0.078125 Z M 2.03125 -0.078125 "/></g></g></g><g fill="#ffffff" fill-opacity="1"><g transform="translate(62.233921, 31.185336)"><g><path d="M 2.015625 0.1875 L 0.40625 0.53125 C 0.363281 0.539062 0.332031 0.5625 0.3125 0.59375 C 0.289062 0.632812 0.285156 0.675781 0.296875 0.71875 L 0.390625 1.140625 C 0.421875 1.253906 0.46875 1.34375 0.53125 1.40625 C 0.601562 1.476562 0.6875 1.515625 0.78125 1.515625 C 0.8125 1.515625 0.832031 1.53125 0.84375 1.5625 C 0.851562 1.59375 0.835938 1.609375 0.796875 1.609375 L 0.484375 1.640625 C 0.453125 1.648438 0.421875 1.644531 0.390625 1.625 C 0.359375 1.601562 0.335938 1.570312 0.328125 1.53125 L 0.109375 0.46875 L 0.015625 0.140625 C 0.00390625 0.109375 0.015625 0.0859375 0.046875 0.078125 C 0.078125 0.078125 0.0976562 0.0859375 0.109375 0.109375 L 0.125 0.203125 C 0.132812 0.242188 0.148438 0.269531 0.171875 0.28125 C 0.203125 0.300781 0.238281 0.304688 0.28125 0.296875 L 1.96875 -0.0625 C 2.039062 -0.0820312 2.070312 -0.132812 2.0625 -0.21875 L 2.0625 -0.3125 C 2.050781 -0.332031 2.054688 -0.34375 2.078125 -0.34375 C 2.109375 -0.351562 2.128906 -0.34375 2.140625 -0.3125 L 2.203125 0.015625 L 2.28125 0.3125 C 2.28125 0.34375 2.269531 0.359375 2.25 0.359375 C 2.21875 0.367188 2.203125 0.363281 2.203125 0.34375 L 2.171875 0.28125 C 2.140625 0.195312 2.085938 0.164062 2.015625 0.1875 Z M 2.015625 0.1875 "/></g></g></g><g fill="#ffffff" fill-opacity="1"><g transform="translate(62.853093, 34.561684)"><g><path d="M 0.125 1.625 L 0.03125 0.484375 L 0 0.140625 C -0.0078125 0.109375 0 0.09375 0.03125 0.09375 C 0.0625 0.09375 0.0820312 0.101562 0.09375 0.125 L 0.09375 0.21875 C 0.09375 0.257812 0.101562 0.289062 0.125 0.3125 C 0.15625 0.332031 0.191406 0.34375 0.234375 0.34375 L 1.96875 0.21875 C 2.039062 0.207031 2.078125 0.15625 2.078125 0.0625 L 2.09375 -0.03125 C 2.082031 -0.0507812 2.085938 -0.0625 2.109375 -0.0625 C 2.140625 -0.0703125 2.160156 -0.0625 2.171875 -0.03125 L 2.171875 0.328125 L 2.265625 1.40625 C 2.265625 1.445312 2.253906 1.476562 2.234375 1.5 C 2.210938 1.53125 2.179688 1.546875 2.140625 1.546875 L 1.875 1.625 C 1.84375 1.625 1.820312 1.609375 1.8125 1.578125 C 1.8125 1.546875 1.828125 1.523438 1.859375 1.515625 C 1.953125 1.472656 2.015625 1.414062 2.046875 1.34375 C 2.085938 1.28125 2.101562 1.195312 2.09375 1.09375 L 2.0625 0.609375 C 2.050781 0.566406 2.03125 0.53125 2 0.5 C 1.976562 0.476562 1.945312 0.46875 1.90625 0.46875 L 1.265625 0.515625 C 1.234375 0.515625 1.21875 0.53125 1.21875 0.5625 L 1.265625 1.125 C 1.265625 1.15625 1.269531 1.175781 1.28125 1.1875 C 1.300781 1.207031 1.316406 1.21875 1.328125 1.21875 C 1.335938 1.226562 1.363281 1.238281 1.40625 1.25 L 1.453125 1.25 C 1.472656 1.257812 1.484375 1.273438 1.484375 1.296875 C 1.484375 1.316406 1.472656 1.328125 1.453125 1.328125 L 1.1875 1.359375 L 0.9375 1.375 C 0.914062 1.375 0.898438 1.363281 0.890625 1.34375 C 0.890625 1.3125 0.90625 1.296875 0.9375 1.296875 L 0.984375 1.28125 C 1.078125 1.257812 1.125 1.210938 1.125 1.140625 L 1.078125 0.578125 C 1.078125 0.546875 1.066406 0.53125 1.046875 0.53125 L 0.328125 0.59375 C 0.285156 0.59375 0.25 0.609375 0.21875 0.640625 C 0.195312 0.671875 0.191406 0.707031 0.203125 0.75 L 0.234375 1.25 C 0.242188 1.363281 0.273438 1.457031 0.328125 1.53125 C 0.390625 1.601562 0.472656 1.648438 0.578125 1.671875 C 0.609375 1.679688 0.625 1.695312 0.625 1.71875 C 0.632812 1.75 0.632812 1.765625 0.625 1.765625 C 0.613281 1.773438 0.597656 1.78125 0.578125 1.78125 L 0.265625 1.75 C 0.234375 1.757812 0.203125 1.75 0.171875 1.71875 C 0.140625 1.695312 0.125 1.664062 0.125 1.625 Z M 0.125 1.625 "/></g></g></g><g fill="#ffffff" fill-opacity="1"><g transform="translate(63.01483, 38.109866)"><g><path d="M 1.1875 1.453125 C 1.257812 1.554688 1.359375 1.609375 1.484375 1.609375 C 1.617188 1.617188 1.722656 1.578125 1.796875 1.484375 C 1.878906 1.398438 1.925781 1.289062 1.9375 1.15625 L 1.953125 0.859375 C 1.960938 0.773438 1.929688 0.734375 1.859375 0.734375 L 1.15625 0.6875 C 1.132812 0.6875 1.117188 0.703125 1.109375 0.734375 L 1.09375 1.109375 C 1.082031 1.242188 1.113281 1.359375 1.1875 1.453125 Z M 2.0625 1.265625 C 2.050781 1.460938 1.992188 1.617188 1.890625 1.734375 C 1.785156 1.847656 1.648438 1.898438 1.484375 1.890625 C 1.316406 1.878906 1.179688 1.8125 1.078125 1.6875 C 0.984375 1.5625 0.9375 1.421875 0.9375 1.265625 C 0.925781 1.304688 0.898438 1.335938 0.859375 1.359375 L 0.09375 1.78125 C 0.0195312 1.8125 -0.0234375 1.875 -0.046875 1.96875 L -0.046875 2.015625 C -0.0546875 2.046875 -0.0703125 2.0625 -0.09375 2.0625 C -0.125 2.0625 -0.140625 2.046875 -0.140625 2.015625 C -0.117188 1.816406 -0.101562 1.691406 -0.09375 1.640625 C -0.09375 1.597656 -0.0703125 1.5625 -0.03125 1.53125 L 0.859375 1.078125 C 0.921875 1.035156 0.953125 0.992188 0.953125 0.953125 C 0.953125 0.953125 0.953125 0.945312 0.953125 0.9375 L 0.96875 0.71875 C 0.976562 0.6875 0.972656 0.671875 0.953125 0.671875 L 0.171875 0.625 C 0.128906 0.625 0.09375 0.632812 0.0625 0.65625 C 0.0390625 0.675781 0.03125 0.707031 0.03125 0.75 L 0.015625 0.875 C 0.015625 0.90625 0 0.921875 -0.03125 0.921875 C -0.0625 0.921875 -0.078125 0.90625 -0.078125 0.875 L -0.03125 0.484375 L -0.03125 0.15625 C -0.0195312 0.125 0 0.109375 0.03125 0.109375 C 0.0507812 0.109375 0.0625 0.117188 0.0625 0.140625 L 0.0625 0.234375 C 0.0625 0.316406 0.101562 0.363281 0.1875 0.375 L 1.921875 0.484375 C 1.992188 0.484375 2.035156 0.4375 2.046875 0.34375 L 2.0625 0.25 C 2.070312 0.226562 2.085938 0.21875 2.109375 0.21875 C 2.140625 0.226562 2.148438 0.25 2.140625 0.28125 L 2.109375 0.703125 Z M 2.0625 1.265625 "/></g></g></g><g fill="#ffffff" fill-opacity="1"><g transform="translate(62.651671, 41.750113)"><g/></g></g></svg>