<svg xmlns="http://www.w3.org/2000/svg" xmlns:xlink="http://www.w3.org/1999/xlink" width="100" zoomAndPan="magnify" viewBox="0 0 75 74.999997" height="100" preserveAspectRatio="xMidYMid meet" version="1.0"><defs><g/><clipPath id="a2f46560e6"><path d="M 0.476562 0.566406 L 74.578125 0.566406 L 74.578125 74.664062 L 0.476562 74.664062 Z M 0.476562 0.566406 " clip-rule="nonzero"/></clipPath><clipPath id="0a9f8512d6"><path d="M 37.527344 0.566406 C 17.066406 0.566406 0.476562 17.152344 0.476562 37.617188 C 0.476562 58.078125 17.066406 74.664062 37.527344 74.664062 C 57.992188 74.664062 74.578125 58.078125 74.578125 37.617188 C 74.578125 17.152344 57.992188 0.566406 37.527344 0.566406 " clip-rule="nonzero"/></clipPath><clipPath id="12be794a2f"><path d="M 2 3 L 72 3 L 72 73 L 2 73 Z M 2 3 " clip-rule="nonzero"/></clipPath><clipPath id="ba6e5c1686"><path d="M -11.296875 35.40625 L 28.214844 -0.582031 L 74.636719 50.382812 L 35.125 86.371094 Z M -11.296875 35.40625 " clip-rule="nonzero"/></clipPath><clipPath id="8bb9ad0b71"><path d="M -11.296875 35.40625 L 39.667969 -11.011719 L 86.089844 39.949219 L 35.125 86.371094 Z M -11.296875 35.40625 " clip-rule="nonzero"/></clipPath></defs><g clip-path="url(#a2f46560e6)"><g clip-path="url(#0a9f8512d6)"><path stroke-linecap="butt" transform="matrix(0.258259, 0, 0, 0.258259, 0.47836, 0.565315)" fill="none" stroke-linejoin="miter" d="M 143.456652 0.0042245 C 64.230253 0.0042245 -0.00695999 64.226312 -0.00695999 143.467837 C -0.00695999 222.694236 64.230253 286.916323 143.456652 286.916323 C 222.698177 286.916323 286.920264 222.694236 286.920264 143.467837 C 286.920264 64.226312 222.698177 0.0042245 143.456652 0.0042245 " stroke="#ffffff" stroke-width="5.809703" stroke-opacity="1" stroke-miterlimit="4"/></g></g><g clip-path="url(#12be794a2f)"><g clip-path="url(#ba6e5c1686)"><g clip-path="url(#8bb9ad0b71)"><path fill="#ffffff" d="M 60.605469 63.160156 C 46.558594 75.957031 24.707031 74.9375 11.914062 60.890625 C -0.878906 46.84375 0.140625 24.992188 14.183594 12.195312 C 28.230469 -0.597656 50.082031 0.421875 62.878906 14.46875 C 75.671875 28.515625 74.652344 50.367188 60.605469 63.160156 Z M 14.527344 12.574219 C 0.683594 25.183594 -0.320312 46.699219 12.289062 60.546875 C 24.902344 74.390625 46.417969 75.394531 60.261719 62.785156 C 74.109375 50.171875 75.113281 28.65625 62.5 14.8125 C 49.890625 0.964844 28.375 -0.0390625 14.527344 12.574219 Z M 14.527344 12.574219 " fill-opacity="1" fill-rule="nonzero"/></g></g></g><g fill="#ffffff" fill-opacity="1"><g transform="translate(14.387645, 50.909326)"><g><path d="M 17 -23.777344 C 17 -16.421875 6.488281 -15.5 6.488281 -13.136719 C 6.488281 -11.640625 8.90625 -12.242188 11.824219 -7.882812 C 15.972656 -1.65625 16.710938 0 17.917969 0 L 21.9375 0 L 21.9375 -0.261719 C 18.941406 -0.261719 16.472656 -4.914062 14.003906 -8.589844 C 11.480469 -12.375 6.753906 -11.640625 6.753906 -13.136719 C 6.753906 -14.84375 19.46875 -15.710938 19.46875 -23.828125 C 19.46875 -24.800781 19.152344 -25.828125 18.679688 -26.273438 L 16.078125 -26.273438 C 16.65625 -25.851562 17 -24.75 17 -23.777344 Z M 0.789062 0 L 7.855469 0 L 7.855469 -0.261719 C 5.597656 -0.261719 5.4375 -2.128906 5.4375 -7.304688 L 5.4375 -18.96875 C 5.4375 -24.144531 5.597656 -26.011719 7.855469 -26.011719 L 7.855469 -26.273438 L 0.789062 -26.273438 L 0.789062 -26.011719 C 3.046875 -26.011719 3.207031 -24.144531 3.207031 -18.96875 L 3.207031 -7.304688 C 3.207031 -2.128906 3.046875 -0.261719 0.789062 -0.261719 Z M 0.789062 0 "/></g></g></g><g fill="#ffffff" fill-opacity="1"><g transform="translate(36.586371, 50.909326)"><g><path d="M 7.882812 0 L 7.882812 -0.261719 C 5.621094 -0.261719 5.464844 -2.128906 5.464844 -7.304688 L 5.464844 -12.898438 C 5.464844 -14.136719 5.9375 -15.210938 7.304688 -15.210938 C 9.167969 -15.210938 11.246094 -12.898438 14.449219 -12.898438 C 16.527344 -12.898438 17.8125 -14.238281 17.8125 -15.789062 L 17.550781 -15.789062 C 17.550781 -14.871094 16.605469 -14.292969 15.605469 -14.292969 C 13.292969 -14.292969 11.113281 -15.921875 8.511719 -15.921875 C 6.9375 -15.921875 5.78125 -15.082031 5.464844 -14.371094 L 5.464844 -18.96875 C 5.464844 -24.144531 5.621094 -26.011719 7.882812 -26.011719 L 7.882812 -26.273438 L 0.789062 -26.273438 L 0.789062 -26.011719 C 3.046875 -26.011719 3.207031 -24.144531 3.207031 -18.96875 L 3.207031 -7.304688 C 3.207031 -2.128906 3.046875 -0.261719 0.789062 -0.261719 L 0.789062 0 Z M 16.183594 -26.011719 C 18.445312 -26.011719 18.601562 -24.144531 18.601562 -18.96875 L 18.601562 -7.304688 C 18.601562 -2.128906 18.445312 -0.261719 16.183594 -0.261719 L 16.183594 0 L 23.277344 0 L 23.277344 -0.261719 C 21.019531 -0.261719 20.859375 -2.128906 20.859375 -7.304688 L 20.859375 -18.96875 C 20.859375 -24.144531 21.019531 -26.011719 23.277344 -26.011719 L 23.277344 -26.273438 L 16.183594 -26.273438 Z M 16.183594 -26.011719 "/></g></g></g><g fill="#ffffff" fill-opacity="1"><g transform="translate(34.861238, 5.897181)"><g><path d="M 1.859375 -2.59375 L 1.84375 -2.703125 C 1.84375 -2.722656 1.859375 -2.734375 1.890625 -2.734375 L 2.109375 -2.734375 L 2.484375 -2.765625 C 2.523438 -2.765625 2.546875 -2.75 2.546875 -2.71875 C 2.546875 -2.6875 2.53125 -2.671875 2.5 -2.671875 L 2.375 -2.640625 C 2.289062 -2.628906 2.210938 -2.578125 2.140625 -2.484375 L 1.3125 -1.515625 C 1.28125 -1.472656 1.242188 -1.4375 1.203125 -1.40625 C 1.253906 -1.382812 1.296875 -1.351562 1.328125 -1.3125 L 2.296875 -0.328125 C 2.398438 -0.222656 2.488281 -0.175781 2.5625 -0.1875 L 2.671875 -0.171875 C 2.703125 -0.171875 2.71875 -0.15625 2.71875 -0.125 C 2.71875 -0.09375 2.703125 -0.078125 2.671875 -0.078125 C 2.367188 -0.0664062 2.191406 -0.0625 2.140625 -0.0625 C 2.085938 -0.0625 2.035156 -0.0859375 1.984375 -0.140625 L 1.046875 -1.15625 C 0.972656 -1.238281 0.910156 -1.28125 0.859375 -1.28125 L 0.765625 -1.265625 C 0.742188 -1.265625 0.734375 -1.25 0.734375 -1.21875 L 0.765625 -0.265625 C 0.765625 -0.171875 0.800781 -0.125 0.875 -0.125 L 0.90625 -0.125 C 0.9375 -0.113281 0.953125 -0.09375 0.953125 -0.0625 C 0.953125 -0.03125 0.9375 -0.015625 0.90625 -0.015625 L 0.609375 -0.015625 L 0.234375 0.015625 C 0.191406 0.015625 0.171875 0 0.171875 -0.03125 C 0.171875 -0.0625 0.1875 -0.0820312 0.21875 -0.09375 L 0.28125 -0.09375 C 0.382812 -0.113281 0.4375 -0.171875 0.4375 -0.265625 L 0.375 -2.4375 C 0.363281 -2.53125 0.300781 -2.578125 0.1875 -2.578125 L 0.078125 -2.59375 C 0.046875 -2.59375 0.03125 -2.609375 0.03125 -2.640625 C 0.03125 -2.671875 0.0507812 -2.6875 0.09375 -2.6875 L 0.515625 -2.6875 L 0.828125 -2.71875 C 0.859375 -2.71875 0.875 -2.703125 0.875 -2.671875 C 0.875 -2.640625 0.859375 -2.625 0.828125 -2.625 L 0.796875 -2.625 C 0.722656 -2.59375 0.691406 -2.53125 0.703125 -2.4375 L 0.71875 -1.484375 C 0.71875 -1.453125 0.726562 -1.4375 0.75 -1.4375 L 0.859375 -1.453125 C 0.921875 -1.453125 0.984375 -1.488281 1.046875 -1.5625 L 1.828125 -2.5 C 1.859375 -2.53125 1.867188 -2.5625 1.859375 -2.59375 Z M 1.859375 -2.59375 "/></g></g></g><g fill="#ffffff" fill-opacity="1"><g transform="translate(39.509386, 5.918079)"><g><path d="M 2.015625 0.234375 L 0.59375 0.0625 L 0.171875 0.03125 C 0.128906 0.03125 0.109375 0.015625 0.109375 -0.015625 C 0.117188 -0.0546875 0.140625 -0.078125 0.171875 -0.078125 L 0.28125 -0.0625 C 0.332031 -0.0703125 0.375 -0.0859375 0.40625 -0.109375 C 0.4375 -0.128906 0.457031 -0.160156 0.46875 -0.203125 L 0.71875 -2.359375 C 0.726562 -2.453125 0.675781 -2.507812 0.5625 -2.53125 L 0.453125 -2.5625 C 0.421875 -2.5625 0.40625 -2.578125 0.40625 -2.609375 C 0.40625 -2.640625 0.425781 -2.65625 0.46875 -2.65625 L 0.890625 -2.59375 L 2.234375 -2.4375 C 2.285156 -2.425781 2.328125 -2.40625 2.359375 -2.375 C 2.390625 -2.351562 2.398438 -2.320312 2.390625 -2.28125 L 2.421875 -1.90625 C 2.410156 -1.863281 2.382812 -1.84375 2.34375 -1.84375 C 2.300781 -1.851562 2.28125 -1.878906 2.28125 -1.921875 C 2.25 -2.046875 2.195312 -2.132812 2.125 -2.1875 C 2.0625 -2.25 1.960938 -2.289062 1.828125 -2.3125 L 1.234375 -2.375 C 1.179688 -2.382812 1.132812 -2.375 1.09375 -2.34375 C 1.050781 -2.3125 1.03125 -2.269531 1.03125 -2.21875 L 0.9375 -1.40625 C 0.9375 -1.375 0.953125 -1.359375 0.984375 -1.359375 L 1.6875 -1.28125 C 1.71875 -1.28125 1.742188 -1.285156 1.765625 -1.296875 C 1.785156 -1.316406 1.800781 -1.332031 1.8125 -1.34375 C 1.820312 -1.351562 1.835938 -1.378906 1.859375 -1.421875 L 1.875 -1.484375 C 1.882812 -1.503906 1.898438 -1.507812 1.921875 -1.5 C 1.953125 -1.5 1.96875 -1.484375 1.96875 -1.453125 L 1.921875 -1.125 L 1.890625 -0.828125 C 1.890625 -0.796875 1.875 -0.78125 1.84375 -0.78125 C 1.8125 -0.789062 1.796875 -0.8125 1.796875 -0.84375 L 1.796875 -0.90625 C 1.785156 -1.03125 1.738281 -1.097656 1.65625 -1.109375 L 0.953125 -1.1875 C 0.921875 -1.1875 0.90625 -1.164062 0.90625 -1.125 L 0.8125 -0.265625 C 0.800781 -0.203125 0.8125 -0.15625 0.84375 -0.125 C 0.875 -0.09375 0.914062 -0.0703125 0.96875 -0.0625 L 1.59375 0.015625 C 1.71875 0.0234375 1.832031 0.00390625 1.9375 -0.046875 C 2.050781 -0.109375 2.128906 -0.203125 2.171875 -0.328125 C 2.203125 -0.359375 2.226562 -0.375 2.25 -0.375 C 2.28125 -0.375 2.300781 -0.363281 2.3125 -0.34375 C 2.320312 -0.320312 2.320312 -0.304688 2.3125 -0.296875 L 2.203125 0.09375 C 2.203125 0.132812 2.179688 0.164062 2.140625 0.1875 C 2.109375 0.21875 2.066406 0.234375 2.015625 0.234375 Z M 2.015625 0.234375 "/></g></g></g><g fill="#ffffff" fill-opacity="1"><g transform="translate(43.90096, 6.55791)"><g><path d="M 1.96875 0.5 L 0.578125 0.140625 L 0.171875 0.0625 C 0.128906 0.0507812 0.109375 0.03125 0.109375 0 C 0.117188 -0.0390625 0.140625 -0.0625 0.171875 -0.0625 L 0.265625 -0.03125 C 0.328125 -0.03125 0.375 -0.0351562 0.40625 -0.046875 C 0.445312 -0.0664062 0.472656 -0.09375 0.484375 -0.125 L 1.03125 -2.234375 C 1.050781 -2.328125 1.003906 -2.394531 0.890625 -2.4375 L 0.796875 -2.484375 C 0.765625 -2.484375 0.753906 -2.5 0.765625 -2.53125 C 0.773438 -2.5625 0.800781 -2.570312 0.84375 -2.5625 L 1.25 -2.453125 L 2.5625 -2.109375 C 2.613281 -2.097656 2.648438 -2.070312 2.671875 -2.03125 C 2.691406 -2 2.695312 -1.960938 2.6875 -1.921875 L 2.671875 -1.5625 C 2.660156 -1.519531 2.632812 -1.503906 2.59375 -1.515625 C 2.550781 -1.523438 2.53125 -1.550781 2.53125 -1.59375 C 2.507812 -1.707031 2.46875 -1.800781 2.40625 -1.875 C 2.351562 -1.945312 2.265625 -2 2.140625 -2.03125 L 1.546875 -2.1875 C 1.492188 -2.195312 1.441406 -2.191406 1.390625 -2.171875 C 1.347656 -2.148438 1.320312 -2.113281 1.3125 -2.0625 L 1.109375 -1.28125 C 1.097656 -1.25 1.109375 -1.226562 1.140625 -1.21875 L 1.84375 -1.046875 C 1.875 -1.035156 1.898438 -1.035156 1.921875 -1.046875 C 1.953125 -1.066406 1.972656 -1.078125 1.984375 -1.078125 C 2.003906 -1.085938 2.023438 -1.113281 2.046875 -1.15625 L 2.078125 -1.21875 C 2.085938 -1.238281 2.101562 -1.242188 2.125 -1.234375 C 2.144531 -1.222656 2.15625 -1.203125 2.15625 -1.171875 L 2.046875 -0.859375 L 1.984375 -0.546875 C 1.984375 -0.515625 1.96875 -0.503906 1.9375 -0.515625 C 1.914062 -0.523438 1.90625 -0.546875 1.90625 -0.578125 L 1.90625 -0.640625 C 1.925781 -0.773438 1.894531 -0.851562 1.8125 -0.875 L 1.109375 -1.046875 C 1.078125 -1.054688 1.054688 -1.046875 1.046875 -1.015625 L 0.828125 -0.15625 C 0.804688 -0.09375 0.8125 -0.0390625 0.84375 0 C 0.875 0.03125 0.914062 0.0507812 0.96875 0.0625 L 1.59375 0.21875 C 1.707031 0.25 1.820312 0.242188 1.9375 0.203125 C 2.050781 0.171875 2.140625 0.0976562 2.203125 -0.015625 C 2.234375 -0.0546875 2.257812 -0.0703125 2.28125 -0.0625 C 2.3125 -0.0507812 2.328125 -0.0351562 2.328125 -0.015625 C 2.335938 -0.00390625 2.335938 0.0078125 2.328125 0.03125 L 2.171875 0.390625 C 2.160156 0.429688 2.132812 0.460938 2.09375 0.484375 C 2.0625 0.515625 2.019531 0.519531 1.96875 0.5 Z M 1.96875 0.5 "/></g></g></g><g fill="#ffffff" fill-opacity="1"><g transform="translate(48.159617, 7.782823)"><g><path d="M 2.375 0.375 L 3.09375 -1.328125 C 3.125 -1.410156 3.09375 -1.476562 3 -1.53125 L 2.90625 -1.59375 C 2.875 -1.601562 2.863281 -1.625 2.875 -1.65625 C 2.882812 -1.6875 2.910156 -1.695312 2.953125 -1.6875 L 3.296875 -1.515625 L 3.5625 -1.421875 C 3.59375 -1.410156 3.601562 -1.390625 3.59375 -1.359375 C 3.582031 -1.328125 3.5625 -1.316406 3.53125 -1.328125 L 3.484375 -1.34375 C 3.367188 -1.351562 3.296875 -1.320312 3.265625 -1.25 L 2.328125 0.984375 C 2.316406 1.015625 2.300781 1.019531 2.28125 1 L 2.234375 0.984375 C 2.171875 0.960938 2.132812 0.910156 2.125 0.828125 L 1.4375 -1.6875 C 1.4375 -1.695312 1.429688 -1.703125 1.421875 -1.703125 C 1.410156 -1.710938 1.394531 -1.707031 1.375 -1.6875 L 0.671875 0 C 0.640625 0.0820312 0.664062 0.148438 0.75 0.203125 L 0.8125 0.234375 C 0.84375 0.253906 0.851562 0.28125 0.84375 0.3125 C 0.832031 0.34375 0.8125 0.351562 0.78125 0.34375 L 0.5 0.21875 L 0.15625 0.078125 C 0.113281 0.0664062 0.0976562 0.046875 0.109375 0.015625 C 0.117188 -0.015625 0.140625 -0.03125 0.171875 -0.03125 L 0.28125 0.015625 C 0.394531 0.046875 0.46875 0.0195312 0.5 -0.0625 L 1.34375 -2.0625 C 1.375 -2.144531 1.351562 -2.210938 1.28125 -2.265625 L 1.203125 -2.3125 C 1.171875 -2.320312 1.160156 -2.34375 1.171875 -2.375 C 1.179688 -2.40625 1.207031 -2.410156 1.25 -2.390625 L 1.53125 -2.25 C 1.601562 -2.226562 1.644531 -2.191406 1.65625 -2.140625 L 2.34375 0.375 C 2.351562 0.382812 2.359375 0.390625 2.359375 0.390625 C 2.367188 0.398438 2.375 0.394531 2.375 0.375 Z M 2.375 0.375 "/></g></g></g><g fill="#ffffff" fill-opacity="1"><g transform="translate(52.629765, 9.823977)"><g><path d="M 1.296875 -0.4375 L 2.015625 0 C 2.046875 0.0195312 2.0625 0.0078125 2.0625 -0.03125 L 2.28125 -1.265625 L 1.28125 -0.5 C 1.257812 -0.46875 1.265625 -0.445312 1.296875 -0.4375 Z M 0.5625 0.046875 C 0.550781 0.0546875 0.539062 0.0703125 0.53125 0.09375 C 0.519531 0.113281 0.515625 0.140625 0.515625 0.171875 C 0.523438 0.203125 0.546875 0.226562 0.578125 0.25 L 0.640625 0.28125 C 0.671875 0.3125 0.675781 0.335938 0.65625 0.359375 C 0.632812 0.390625 0.609375 0.394531 0.578125 0.375 L 0.3125 0.1875 L 0 0.03125 C -0.03125 0.0078125 -0.0351562 -0.015625 -0.015625 -0.046875 C 0.00390625 -0.078125 0.0234375 -0.0859375 0.046875 -0.078125 L 0.109375 -0.03125 C 0.210938 0.0078125 0.300781 0 0.375 -0.0625 L 2.484375 -1.609375 C 2.503906 -1.640625 2.535156 -1.640625 2.578125 -1.609375 C 2.617188 -1.585938 2.640625 -1.554688 2.640625 -1.515625 L 2.21875 1.0625 C 2.207031 1.15625 2.242188 1.238281 2.328125 1.3125 L 2.390625 1.34375 C 2.398438 1.351562 2.40625 1.363281 2.40625 1.375 C 2.40625 1.382812 2.40625 1.390625 2.40625 1.390625 C 2.375 1.429688 2.347656 1.445312 2.328125 1.4375 L 1.96875 1.1875 L 1.59375 1 C 1.570312 0.976562 1.570312 0.953125 1.59375 0.921875 C 1.613281 0.898438 1.632812 0.894531 1.65625 0.90625 L 1.734375 0.9375 C 1.765625 0.96875 1.796875 0.976562 1.828125 0.96875 C 1.859375 0.957031 1.878906 0.941406 1.890625 0.921875 C 1.898438 0.898438 1.90625 0.878906 1.90625 0.859375 L 2.03125 0.25 C 2.03125 0.21875 2.015625 0.195312 1.984375 0.1875 L 1.140625 -0.34375 C 1.109375 -0.351562 1.082031 -0.351562 1.0625 -0.34375 Z M 0.5625 0.046875 "/></g></g></g><g fill="#ffffff" fill-opacity="1"><g transform="translate(56.605969, 12.409664)"><g><path d="M 2.171875 1.0625 L 3.34375 -0.359375 C 3.40625 -0.429688 3.398438 -0.507812 3.328125 -0.59375 L 3.234375 -0.65625 C 3.210938 -0.675781 3.210938 -0.695312 3.234375 -0.71875 C 3.253906 -0.75 3.28125 -0.753906 3.3125 -0.734375 L 3.59375 -0.46875 L 3.828125 -0.296875 C 3.847656 -0.273438 3.847656 -0.25 3.828125 -0.21875 C 3.804688 -0.195312 3.785156 -0.195312 3.765625 -0.21875 L 3.71875 -0.265625 C 3.625 -0.304688 3.546875 -0.296875 3.484375 -0.234375 L 1.9375 1.625 C 1.914062 1.644531 1.894531 1.644531 1.875 1.625 L 1.84375 1.59375 C 1.789062 1.550781 1.769531 1.5 1.78125 1.4375 L 1.875 -1.1875 C 1.863281 -1.195312 1.851562 -1.203125 1.84375 -1.203125 C 1.84375 -1.210938 1.832031 -1.207031 1.8125 -1.1875 L 0.640625 0.21875 C 0.585938 0.28125 0.59375 0.347656 0.65625 0.421875 L 0.703125 0.46875 C 0.722656 0.5 0.722656 0.523438 0.703125 0.546875 C 0.679688 0.578125 0.65625 0.582031 0.625 0.5625 L 0.421875 0.34375 L 0.109375 0.125 C 0.078125 0.09375 0.0703125 0.0625 0.09375 0.03125 C 0.113281 0.0078125 0.144531 0.00390625 0.1875 0.015625 L 0.265625 0.09375 C 0.359375 0.15625 0.429688 0.15625 0.484375 0.09375 L 1.875 -1.578125 C 1.9375 -1.648438 1.941406 -1.722656 1.890625 -1.796875 L 1.828125 -1.84375 C 1.796875 -1.863281 1.789062 -1.882812 1.8125 -1.90625 C 1.832031 -1.9375 1.863281 -1.9375 1.90625 -1.90625 L 2.140625 -1.703125 C 2.191406 -1.648438 2.21875 -1.597656 2.21875 -1.546875 L 2.125 1.03125 C 2.125 1.050781 2.125 1.0625 2.125 1.0625 C 2.132812 1.070312 2.148438 1.070312 2.171875 1.0625 Z M 2.171875 1.0625 "/></g></g></g><g fill="#ffffff" fill-opacity="1"><g transform="translate(60.275245, 15.719066)"><g/></g></g><g fill="#ffffff" fill-opacity="1"><g transform="translate(62.222176, 17.88373)"><g><path d="M 1.78125 2.28125 C 1.800781 2.3125 1.796875 2.335938 1.765625 2.359375 C 1.734375 2.390625 1.707031 2.390625 1.6875 2.359375 L 1.453125 2 L 1.21875 1.703125 C 1.195312 1.679688 1.203125 1.660156 1.234375 1.640625 C 1.253906 1.617188 1.273438 1.613281 1.296875 1.625 L 1.34375 1.6875 C 1.40625 1.757812 1.472656 1.769531 1.546875 1.71875 L 2.3125 1.15625 C 2.351562 1.125 2.363281 1.09375 2.34375 1.0625 L 1.515625 -0.078125 C 1.515625 -0.0859375 1.503906 -0.09375 1.484375 -0.09375 C 1.460938 -0.09375 1.441406 -0.0859375 1.421875 -0.078125 L 0.65625 0.484375 C 0.582031 0.535156 0.570312 0.601562 0.625 0.6875 L 0.65625 0.734375 C 0.664062 0.765625 0.660156 0.789062 0.640625 0.8125 C 0.628906 0.8125 0.613281 0.8125 0.59375 0.8125 C 0.582031 0.820312 0.570312 0.820312 0.5625 0.8125 L 0.34375 0.484375 L 0.078125 0.15625 C 0.0546875 0.125 0.0625 0.09375 0.09375 0.0625 C 0.125 0.0390625 0.148438 0.0390625 0.171875 0.0625 L 0.234375 0.15625 C 0.273438 0.195312 0.3125 0.222656 0.34375 0.234375 C 0.382812 0.242188 0.421875 0.238281 0.453125 0.21875 L 2.203125 -1.0625 C 2.285156 -1.113281 2.296875 -1.191406 2.234375 -1.296875 L 2.1875 -1.40625 C 2.164062 -1.425781 2.164062 -1.441406 2.1875 -1.453125 C 2.21875 -1.472656 2.242188 -1.46875 2.265625 -1.4375 L 2.5 -1.09375 L 2.75 -0.78125 C 2.769531 -0.757812 2.773438 -0.742188 2.765625 -0.734375 C 2.722656 -0.710938 2.691406 -0.710938 2.671875 -0.734375 L 2.625 -0.765625 C 2.550781 -0.835938 2.476562 -0.847656 2.40625 -0.796875 L 1.6875 -0.28125 C 1.644531 -0.25 1.640625 -0.210938 1.671875 -0.171875 L 2.484375 0.953125 C 2.503906 0.984375 2.53125 0.988281 2.5625 0.96875 L 3.296875 0.4375 C 3.367188 0.382812 3.382812 0.316406 3.34375 0.234375 L 3.3125 0.15625 C 3.300781 0.132812 3.3125 0.117188 3.34375 0.109375 C 3.363281 0.0859375 3.382812 0.0859375 3.40625 0.109375 L 3.609375 0.421875 L 3.875 0.765625 C 3.894531 0.796875 3.890625 0.816406 3.859375 0.828125 C 3.835938 0.847656 3.816406 0.84375 3.796875 0.8125 L 3.71875 0.75 C 3.65625 0.664062 3.582031 0.648438 3.5 0.703125 L 1.75 1.984375 C 1.675781 2.035156 1.664062 2.109375 1.71875 2.203125 Z M 1.78125 2.28125 "/></g></g></g><g fill="#ffffff" fill-opacity="1"><g transform="translate(65.060873, 22.082987)"><g><path d="M 0.9375 1.796875 L 0.28125 0.53125 L 0.0625 0.15625 C 0.0390625 0.113281 0.046875 0.0820312 0.078125 0.0625 C 0.109375 0.0507812 0.132812 0.0625 0.15625 0.09375 L 0.203125 0.1875 C 0.234375 0.238281 0.269531 0.269531 0.3125 0.28125 C 0.351562 0.289062 0.390625 0.289062 0.421875 0.28125 L 2.34375 -0.734375 C 2.425781 -0.773438 2.445312 -0.847656 2.40625 -0.953125 L 2.375 -1.0625 C 2.351562 -1.09375 2.351562 -1.113281 2.375 -1.125 C 2.40625 -1.144531 2.429688 -1.132812 2.453125 -1.09375 L 2.65625 -0.703125 L 3.28125 0.5 C 3.300781 0.539062 3.304688 0.582031 3.296875 0.625 C 3.285156 0.664062 3.265625 0.695312 3.234375 0.71875 L 2.9375 0.9375 C 2.90625 0.957031 2.878906 0.945312 2.859375 0.90625 C 2.835938 0.875 2.84375 0.84375 2.875 0.8125 C 2.957031 0.726562 3.003906 0.640625 3.015625 0.546875 C 3.023438 0.453125 3 0.347656 2.9375 0.234375 L 2.65625 -0.3125 C 2.632812 -0.351562 2.601562 -0.382812 2.5625 -0.40625 C 2.519531 -0.425781 2.472656 -0.425781 2.421875 -0.40625 L 1.703125 -0.03125 C 1.671875 -0.0078125 1.660156 0.015625 1.671875 0.046875 L 2 0.6875 C 2.019531 0.71875 2.046875 0.734375 2.078125 0.734375 C 2.109375 0.742188 2.128906 0.75 2.140625 0.75 C 2.148438 0.757812 2.175781 0.757812 2.21875 0.75 L 2.28125 0.734375 C 2.3125 0.734375 2.332031 0.742188 2.34375 0.765625 C 2.351562 0.785156 2.34375 0.804688 2.3125 0.828125 L 2.015625 0.953125 L 1.75 1.109375 C 1.71875 1.128906 1.695312 1.125 1.6875 1.09375 C 1.664062 1.070312 1.671875 1.050781 1.703125 1.03125 L 1.75 1 C 1.863281 0.914062 1.898438 0.835938 1.859375 0.765625 L 1.53125 0.125 C 1.519531 0.09375 1.492188 0.0820312 1.453125 0.09375 L 0.671875 0.5 C 0.617188 0.53125 0.585938 0.570312 0.578125 0.625 C 0.566406 0.675781 0.570312 0.722656 0.59375 0.765625 L 0.890625 1.328125 C 0.953125 1.441406 1.035156 1.523438 1.140625 1.578125 C 1.242188 1.640625 1.359375 1.65625 1.484375 1.625 C 1.523438 1.625 1.550781 1.632812 1.5625 1.65625 C 1.570312 1.6875 1.578125 1.707031 1.578125 1.71875 C 1.578125 1.738281 1.5625 1.753906 1.53125 1.765625 L 1.15625 1.875 C 1.113281 1.894531 1.070312 1.898438 1.03125 1.890625 C 0.988281 1.878906 0.957031 1.847656 0.9375 1.796875 Z M 0.9375 1.796875 "/></g></g></g><g fill="#ffffff" fill-opacity="1"><g transform="translate(66.98742, 26.083344)"><g><path d="M 2.546875 -0.09375 L 0.609375 0.59375 C 0.546875 0.613281 0.503906 0.644531 0.484375 0.6875 C 0.460938 0.738281 0.460938 0.785156 0.484375 0.828125 L 0.671875 1.359375 C 0.710938 1.492188 0.78125 1.59375 0.875 1.65625 C 0.976562 1.71875 1.097656 1.75 1.234375 1.75 C 1.273438 1.738281 1.300781 1.753906 1.3125 1.796875 C 1.332031 1.835938 1.3125 1.863281 1.25 1.875 L 0.859375 1.953125 C 0.828125 1.960938 0.789062 1.957031 0.75 1.9375 C 0.707031 1.914062 0.675781 1.882812 0.65625 1.84375 L 0.203125 0.5625 L 0.046875 0.15625 C 0.0234375 0.125 0.03125 0.101562 0.0625 0.09375 C 0.101562 0.0820312 0.128906 0.0859375 0.140625 0.109375 L 0.1875 0.21875 C 0.207031 0.269531 0.234375 0.300781 0.265625 0.3125 C 0.296875 0.332031 0.332031 0.335938 0.375 0.328125 L 2.421875 -0.40625 C 2.503906 -0.445312 2.535156 -0.519531 2.515625 -0.625 L 2.484375 -0.734375 C 2.472656 -0.753906 2.484375 -0.769531 2.515625 -0.78125 C 2.546875 -0.789062 2.570312 -0.78125 2.59375 -0.75 L 2.71875 -0.34375 L 2.859375 0.015625 C 2.867188 0.046875 2.863281 0.0625 2.84375 0.0625 C 2.800781 0.0820312 2.773438 0.078125 2.765625 0.046875 L 2.734375 0 C 2.679688 -0.09375 2.617188 -0.125 2.546875 -0.09375 Z M 2.546875 -0.09375 "/></g></g></g><g fill="#ffffff" fill-opacity="1"><g transform="translate(68.311948, 30.163623)"><g><path d="M 2.53125 0.234375 L 0.5 0.671875 C 0.445312 0.679688 0.410156 0.707031 0.390625 0.75 C 0.367188 0.800781 0.363281 0.851562 0.375 0.90625 L 0.484375 1.453125 C 0.515625 1.585938 0.570312 1.691406 0.65625 1.765625 C 0.738281 1.835938 0.847656 1.878906 0.984375 1.890625 C 1.023438 1.898438 1.050781 1.925781 1.0625 1.96875 C 1.070312 2.007812 1.046875 2.03125 0.984375 2.03125 L 0.609375 2.046875 C 0.566406 2.054688 0.523438 2.046875 0.484375 2.015625 C 0.441406 1.992188 0.414062 1.957031 0.40625 1.90625 L 0.125 0.578125 L 0.015625 0.171875 C 0.00390625 0.128906 0.015625 0.101562 0.046875 0.09375 C 0.0859375 0.09375 0.113281 0.109375 0.125 0.140625 L 0.15625 0.25 C 0.175781 0.300781 0.203125 0.332031 0.234375 0.34375 C 0.265625 0.363281 0.300781 0.375 0.34375 0.375 L 2.46875 -0.09375 C 2.550781 -0.113281 2.585938 -0.175781 2.578125 -0.28125 L 2.5625 -0.390625 C 2.550781 -0.421875 2.5625 -0.441406 2.59375 -0.453125 C 2.625 -0.453125 2.644531 -0.429688 2.65625 -0.390625 L 2.734375 0.015625 L 2.828125 0.40625 C 2.835938 0.4375 2.832031 0.453125 2.8125 0.453125 C 2.769531 0.460938 2.742188 0.453125 2.734375 0.421875 L 2.703125 0.359375 C 2.660156 0.265625 2.601562 0.222656 2.53125 0.234375 Z M 2.53125 0.234375 "/></g></g></g><g fill="#ffffff" fill-opacity="1"><g transform="translate(69.085345, 34.380976)"><g><path d="M 0.15625 2.03125 L 0.046875 0.59375 L 0 0.171875 C 0 0.128906 0.015625 0.109375 0.046875 0.109375 C 0.0859375 0.109375 0.109375 0.125 0.109375 0.15625 L 0.109375 0.265625 C 0.128906 0.304688 0.148438 0.34375 0.171875 0.375 C 0.203125 0.40625 0.238281 0.421875 0.28125 0.421875 L 2.453125 0.25 C 2.546875 0.238281 2.59375 0.175781 2.59375 0.0625 L 2.609375 -0.046875 C 2.609375 -0.078125 2.617188 -0.09375 2.640625 -0.09375 C 2.671875 -0.09375 2.6875 -0.0703125 2.6875 -0.03125 L 2.703125 0.390625 L 2.8125 1.75 C 2.8125 1.800781 2.800781 1.84375 2.78125 1.875 C 2.757812 1.90625 2.726562 1.925781 2.6875 1.9375 L 2.34375 2.015625 C 2.300781 2.023438 2.273438 2.007812 2.265625 1.96875 C 2.265625 1.925781 2.285156 1.894531 2.328125 1.875 C 2.441406 1.832031 2.519531 1.769531 2.5625 1.6875 C 2.613281 1.613281 2.632812 1.507812 2.625 1.375 L 2.578125 0.765625 C 2.566406 0.710938 2.546875 0.664062 2.515625 0.625 C 2.484375 0.59375 2.441406 0.582031 2.390625 0.59375 L 1.578125 0.65625 C 1.546875 0.65625 1.53125 0.671875 1.53125 0.703125 L 1.578125 1.421875 C 1.585938 1.453125 1.601562 1.476562 1.625 1.5 C 1.644531 1.519531 1.660156 1.53125 1.671875 1.53125 C 1.679688 1.539062 1.707031 1.550781 1.75 1.5625 L 1.8125 1.578125 C 1.832031 1.585938 1.84375 1.601562 1.84375 1.625 C 1.851562 1.65625 1.84375 1.671875 1.8125 1.671875 L 1.484375 1.671875 L 1.171875 1.71875 C 1.140625 1.71875 1.125 1.703125 1.125 1.671875 C 1.113281 1.640625 1.125 1.625 1.15625 1.625 L 1.21875 1.609375 C 1.351562 1.578125 1.414062 1.519531 1.40625 1.4375 L 1.359375 0.71875 C 1.359375 0.6875 1.335938 0.671875 1.296875 0.671875 L 0.421875 0.734375 C 0.359375 0.742188 0.3125 0.765625 0.28125 0.796875 C 0.25 0.835938 0.238281 0.882812 0.25 0.9375 L 0.296875 1.578125 C 0.304688 1.703125 0.347656 1.8125 0.421875 1.90625 C 0.492188 2 0.59375 2.054688 0.71875 2.078125 C 0.769531 2.097656 0.796875 2.117188 0.796875 2.140625 C 0.796875 2.171875 0.785156 2.191406 0.765625 2.203125 C 0.753906 2.222656 0.738281 2.226562 0.71875 2.21875 L 0.328125 2.1875 C 0.285156 2.195312 0.242188 2.1875 0.203125 2.15625 C 0.171875 2.125 0.15625 2.082031 0.15625 2.03125 Z M 0.15625 2.03125 "/></g></g></g><g fill="#ffffff" fill-opacity="1"><g transform="translate(69.287373, 38.812976)"><g><path d="M 1.46875 1.828125 C 1.5625 1.953125 1.6875 2.019531 1.84375 2.03125 C 2.007812 2.039062 2.144531 1.988281 2.25 1.875 C 2.351562 1.757812 2.410156 1.613281 2.421875 1.4375 L 2.4375 1.078125 C 2.445312 0.972656 2.40625 0.921875 2.3125 0.921875 L 1.453125 0.859375 C 1.410156 0.859375 1.390625 0.875 1.390625 0.90625 L 1.359375 1.375 C 1.347656 1.550781 1.382812 1.703125 1.46875 1.828125 Z M 2.578125 1.578125 C 2.566406 1.828125 2.492188 2.023438 2.359375 2.171875 C 2.222656 2.316406 2.050781 2.382812 1.84375 2.375 C 1.644531 2.363281 1.484375 2.273438 1.359375 2.109375 C 1.234375 1.941406 1.175781 1.765625 1.1875 1.578125 L 1.171875 1.578125 C 1.160156 1.628906 1.125 1.671875 1.0625 1.703125 L 0.109375 2.21875 C 0.0234375 2.269531 -0.03125 2.347656 -0.0625 2.453125 L -0.0625 2.53125 C -0.0703125 2.5625 -0.09375 2.578125 -0.125 2.578125 C -0.15625 2.578125 -0.171875 2.554688 -0.171875 2.515625 C -0.148438 2.273438 -0.132812 2.125 -0.125 2.0625 C -0.125 2 -0.0976562 1.953125 -0.046875 1.921875 L 1.078125 1.359375 C 1.148438 1.304688 1.191406 1.25 1.203125 1.1875 L 1.21875 0.90625 C 1.21875 0.863281 1.203125 0.84375 1.171875 0.84375 L 0.203125 0.78125 C 0.160156 0.78125 0.117188 0.796875 0.078125 0.828125 C 0.046875 0.859375 0.03125 0.894531 0.03125 0.9375 L 0.03125 1.109375 C 0.0195312 1.128906 0 1.140625 -0.03125 1.140625 C -0.0703125 1.140625 -0.0859375 1.125 -0.078125 1.09375 L -0.03125 0.609375 L -0.03125 0.1875 C -0.03125 0.15625 -0.015625 0.132812 0.015625 0.125 C 0.046875 0.125 0.0664062 0.140625 0.078125 0.171875 L 0.078125 0.28125 C 0.078125 0.382812 0.125 0.441406 0.21875 0.453125 L 2.390625 0.59375 C 2.484375 0.59375 2.539062 0.535156 2.5625 0.421875 L 2.578125 0.3125 C 2.585938 0.28125 2.609375 0.269531 2.640625 0.28125 C 2.671875 0.28125 2.679688 0.300781 2.671875 0.34375 L 2.625 0.875 Z M 2.578125 1.578125 "/></g></g></g><g fill="#ffffff" fill-opacity="1"><g transform="translate(68.83375, 43.359969)"><g/></g></g></svg>